<?xml version="1.0" encoding="UTF-8" standalone="no"?>
<!-- Created with Inkscape (http://www.inkscape.org/) -->

<svg
   width="512"
   height="512"
   viewBox="0 0 135.46667 135.46666"
   version="1.1"
   id="svg5"
   xml:space="preserve"
   inkscape:version="1.2.2 (b0a8486541, 2022-12-01)"
   sodipodi:docname="os_debian_dark.svg"
   inkscape:export-filename="../../icons/256-96/os_arch.png"
   inkscape:export-xdpi="48"
   inkscape:export-ydpi="48"
   xmlns:inkscape="http://www.inkscape.org/namespaces/inkscape"
   xmlns:sodipodi="http://sodipodi.sourceforge.net/DTD/sodipodi-0.dtd"
   xmlns="http://www.w3.org/2000/svg"
   xmlns:svg="http://www.w3.org/2000/svg"><sodipodi:namedview
     id="namedview7"
     pagecolor="#ffffff"
     bordercolor="#000000"
     borderopacity="0.25"
     inkscape:showpageshadow="2"
     inkscape:pageopacity="0.0"
     inkscape:pagecheckerboard="0"
     inkscape:deskcolor="#d1d1d1"
     inkscape:document-units="px"
     showgrid="false"
     showguides="true"
     inkscape:lockguides="false"
     inkscape:zoom="0.90509668"
     inkscape:cx="104.96116"
     inkscape:cy="77.339804"
     inkscape:window-width="1920"
     inkscape:window-height="1007"
     inkscape:window-x="1920"
     inkscape:window-y="0"
     inkscape:window-maximized="1"
     inkscape:current-layer="svg5"><sodipodi:guide
       position="2.6458333,135.46666"
       orientation="-1,0"
       id="guide20217"
       inkscape:locked="false"
       inkscape:label=""
       inkscape:color="rgb(0,134,229)" /><sodipodi:guide
       position="132.82083,135.46666"
       orientation="-1,0"
       id="guide20221"
       inkscape:locked="false"
       inkscape:label=""
       inkscape:color="rgb(0,134,229)" /><sodipodi:guide
       position="0,132.82083"
       orientation="0,1"
       id="guide20225"
       inkscape:locked="false"
       inkscape:label=""
       inkscape:color="rgb(0,134,229)" /><sodipodi:guide
       position="0,2.6458333"
       orientation="0,1"
       id="guide20227"
       inkscape:locked="false"
       inkscape:label=""
       inkscape:color="rgb(0,134,229)" /></sodipodi:namedview><defs
     id="defs2"><linearGradient
       id="linearGradient30939"
       inkscape:swatch="solid"><stop
         style="stop-color:#8cd2f2;stop-opacity:1;"
         offset="0"
         id="stop30937" /></linearGradient></defs><path
     style="opacity:1;fill:#9d0b0b;fill-opacity:1;fill-rule:evenodd;stroke:#f25757;stroke-width:2.11667;stroke-linecap:round;stroke-linejoin:round;stroke-opacity:1"
     d="m 76.991423,132.81489 c 0,0 -50.28008,-7.03584 -50.28008,-58.587724 0,-26.119516 5.456823,-58.587723 50.28008,-58.587723 15.484364,-0.329025 32.302027,10.309914 32.302027,33.398251 0,15.48786 -8.51147,34.642158 -32.302027,33.398251 -8.681838,-0.453937 -16.077932,-7.164991 -16.077932,-20.535905 0,-8.693697 4.051502,-19.073382 16.077932,-19.812435 7.144018,0 14.314371,7.107384 14.314371,14.112077 0,9.343301 -14.314371,14.835547 -14.314371,14.835547 0,0 18.603515,-2.117388 18.603515,-16.370258 0,-10.452632 -8.896634,-17.726343 -18.603515,-17.972228 -15.49858,0 -22.530924,15.09569 -22.530924,25.791949 0,14.64266 11.842384,26.160839 22.530924,26.567095 31.013597,1.178782 42.581377,-24.401394 42.581377,-44.325903 0,-28.548127 -22.664398,-42.496487 -42.581377,-41.9487867 -45.945328,0 -59.117838,35.7265467 -59.117838,65.0188967 0,62.909846 59.117838,65.018896 59.117838,65.018896 z"
     id="path38371"
     sodipodi:nodetypes="ccccccccccccccccc"
     inkscape:label="shape" /></svg>
