<?xml version="1.0" encoding="UTF-8" standalone="no"?>
<!-- Created with Inkscape (http://www.inkscape.org/) -->

<svg
   width="512"
   height="512"
   viewBox="0 0 135.46667 135.46666"
   version="1.1"
   id="svg5"
   xml:space="preserve"
   inkscape:version="1.2.2 (b0a8486541, 2022-12-01)"
   sodipodi:docname="os_deepin.svg"
   inkscape:export-filename="../../icons/256-96/os_arch.png"
   inkscape:export-xdpi="48"
   inkscape:export-ydpi="48"
   xmlns:inkscape="http://www.inkscape.org/namespaces/inkscape"
   xmlns:sodipodi="http://sodipodi.sourceforge.net/DTD/sodipodi-0.dtd"
   xmlns="http://www.w3.org/2000/svg"
   xmlns:svg="http://www.w3.org/2000/svg"><sodipodi:namedview
     id="namedview7"
     pagecolor="#ffffff"
     bordercolor="#000000"
     borderopacity="0.25"
     inkscape:showpageshadow="2"
     inkscape:pageopacity="0.0"
     inkscape:pagecheckerboard="0"
     inkscape:deskcolor="#d1d1d1"
     inkscape:document-units="px"
     showgrid="false"
     showguides="true"
     inkscape:lockguides="false"
     inkscape:zoom="1.8101934"
     inkscape:cx="243.06795"
     inkscape:cy="211.02718"
     inkscape:window-width="1920"
     inkscape:window-height="1051"
     inkscape:window-x="0"
     inkscape:window-y="0"
     inkscape:window-maximized="1"
     inkscape:current-layer="svg5"><sodipodi:guide
       position="2.6458333,135.46666"
       orientation="-1,0"
       id="guide20217"
       inkscape:locked="false"
       inkscape:label=""
       inkscape:color="rgb(0,134,229)" /><sodipodi:guide
       position="132.82083,135.46666"
       orientation="-1,0"
       id="guide20221"
       inkscape:locked="false"
       inkscape:label=""
       inkscape:color="rgb(0,134,229)" /><sodipodi:guide
       position="0,132.82083"
       orientation="0,1"
       id="guide20225"
       inkscape:locked="false"
       inkscape:label=""
       inkscape:color="rgb(0,134,229)" /><sodipodi:guide
       position="0,2.6458333"
       orientation="0,1"
       id="guide20227"
       inkscape:locked="false"
       inkscape:label=""
       inkscape:color="rgb(0,134,229)" /></sodipodi:namedview><defs
     id="defs2"><linearGradient
       id="linearGradient30939"
       inkscape:swatch="solid"><stop
         style="stop-color:#8cd2f2;stop-opacity:1;"
         offset="0"
         id="stop30937" /></linearGradient><linearGradient
       id="g1"
       gradientUnits="userSpaceOnUse"
       x1="64"
       y1="18"
       x2="64"
       y2="110"><stop
         offset="0"
         style="stop-color:#00B9F2"
         id="stop11-7" /><stop
         offset="0.9212"
         style="stop-color:#1a59a6;stop-opacity:1"
         id="stop13-1" /></linearGradient></defs><circle
     style="display:inline;opacity:1;fill:#add4f3;fill-opacity:1;fill-rule:evenodd;stroke:#5aa9e6;stroke-width:2.11667;stroke-linecap:round;stroke-linejoin:round;stroke-opacity:1"
     id="path988"
     cx="67.733337"
     cy="67.733337"
     r="65.087502"
     inkscape:label="main_blue_shape" /><path
     style="display:inline;opacity:1;fill:#fcf7ff;fill-opacity:1;fill-rule:evenodd;stroke:#5aa9e6;stroke-width:2.11667;stroke-linecap:round;stroke-linejoin:round;stroke-opacity:1"
     d="M 21.463483,27.690492 C 30.764707,69.202249 49.675376,91.384057 72.475452,84.270644 88.156334,78.808382 91.494114,58.870044 85.84573,39.580289 84.766897,39.27617 83.565798,39.009079 82.154689,38.869544 86.540288,66.647728 75.671675,79.672273 62.157059,77.33055 51.292671,74.354999 45.670368,60.824407 48.457089,47.23226 51.444194,33.430103 55.654615,20.898114 61.924515,7.0344542 75.997662,6.5528326 82.420195,8.0726677 94.070486,12.841593 80.606225,21.624626 74.698738,27.287643 66.199123,36.859829 c -10.886349,11.827676 -7.946864,22.81999 -7.946864,22.81999 0,0 7.856353,-3.094398 10.412801,-20.098901 6.77205,-9.135344 29.111255,-11.357917 47.0382,-9.629722 13.96698,18.977869 16.21048,39.152374 9.91901,57.017643 -8.35182,23.353941 -29.414804,45.861011 -69.356326,40.620271 26.183691,-9.97627 42.039931,-20.53474 47.363066,-40.462645 4.55616,-15.561128 -0.0816,-40.109239 -14.102822,-46.554007 0,0 10.332648,17.987402 5.588718,32.403798 C 90.062537,86.764161 80.330143,95.981956 55.106455,98.456523 39.282593,99.552486 27.812292,97.623313 12.543939,93.630262 6.8117573,81.365396 5.7955704,69.391269 7.6351928,57.315624 9.4314829,46.542064 14.406247,36.175713 21.463483,27.690492 Z"
     id="path5090"
     sodipodi:nodetypes="ccccccccccccccccccccc"
     inkscape:label="white_shape" /><path
     style="opacity:1;fill:#add4f3;fill-opacity:1;fill-rule:evenodd;stroke:#5aa9e6;stroke-width:2.11667;stroke-linecap:round;stroke-linejoin:round;stroke-opacity:1"
     d="m 73.392106,39.7198 c 1.331366,-0.293249 3.039011,-0.654308 4.074295,-0.840436 2.103806,15.095261 0.384479,21.787032 -3.982514,27.550689 -2.379473,2.993767 -9.5271,5.239608 -13.513387,-1.369425 4.670926,-1.423419 9.059946,-6.828581 11.394651,-12.402343 1.482405,-4.087315 2.374104,-7.659697 2.026955,-12.938485 z"
     id="path10578"
     sodipodi:nodetypes="cccccc"
     inkscape:label="small_blue_shape" /></svg>
