<?xml version="1.0" encoding="UTF-8" standalone="no"?>
<!-- Created with Inkscape (http://www.inkscape.org/) -->

<svg
   width="512"
   height="512"
   viewBox="0 0 135.46667 135.46666"
   version="1.1"
   id="svg5"
   xml:space="preserve"
   inkscape:version="1.2.2 (b0a8486541, 2022-12-01)"
   sodipodi:docname="os_fedora.svg"
   inkscape:export-filename="../../icons/256-96/os_arch.png"
   inkscape:export-xdpi="48"
   inkscape:export-ydpi="48"
   xmlns:inkscape="http://www.inkscape.org/namespaces/inkscape"
   xmlns:sodipodi="http://sodipodi.sourceforge.net/DTD/sodipodi-0.dtd"
   xmlns="http://www.w3.org/2000/svg"
   xmlns:svg="http://www.w3.org/2000/svg"><sodipodi:namedview
     id="namedview7"
     pagecolor="#ffffff"
     bordercolor="#000000"
     borderopacity="0.25"
     inkscape:showpageshadow="2"
     inkscape:pageopacity="0.0"
     inkscape:pagecheckerboard="0"
     inkscape:deskcolor="#d1d1d1"
     inkscape:document-units="px"
     showgrid="false"
     showguides="true"
     inkscape:lockguides="false"
     inkscape:zoom="0.90509668"
     inkscape:cx="83.416503"
     inkscape:cy="211.02718"
     inkscape:window-width="1920"
     inkscape:window-height="1007"
     inkscape:window-x="1920"
     inkscape:window-y="0"
     inkscape:window-maximized="1"
     inkscape:current-layer="svg5"><sodipodi:guide
       position="2.6458333,135.46666"
       orientation="-1,0"
       id="guide20217"
       inkscape:locked="false"
       inkscape:label=""
       inkscape:color="rgb(0,134,229)" /><sodipodi:guide
       position="132.82083,135.46666"
       orientation="-1,0"
       id="guide20221"
       inkscape:locked="false"
       inkscape:label=""
       inkscape:color="rgb(0,134,229)" /><sodipodi:guide
       position="0,132.82083"
       orientation="0,1"
       id="guide20225"
       inkscape:locked="false"
       inkscape:label=""
       inkscape:color="rgb(0,134,229)" /><sodipodi:guide
       position="0,2.6458333"
       orientation="0,1"
       id="guide20227"
       inkscape:locked="false"
       inkscape:label=""
       inkscape:color="rgb(0,134,229)" /></sodipodi:namedview><defs
     id="defs2"><linearGradient
       id="linearGradient30939"
       inkscape:swatch="solid"><stop
         style="stop-color:#8cd2f2;stop-opacity:1;"
         offset="0"
         id="stop30937" /></linearGradient></defs><path
     style="display:inline;opacity:1;fill:#a3cdeb;fill-opacity:1;fill-rule:evenodd;stroke:#50a1d9;stroke-width:2.11667;stroke-linecap:round;stroke-linejoin:round;stroke-dasharray:none;stroke-opacity:1"
     d="M 2.6458333,119.0625 V 67.733332 c 0,-33.873239 31.2255587,-65.0874988 65.0874987,-65.0874987 33.861938,10e-8 65.087498,31.2010177 65.087498,65.0874987 0,33.886478 -31.16819,65.087498 -65.087498,65.087498 H 16.404166 c -7.9423375,0 -13.7583327,-5.79637 -13.7583327,-13.75833 z"
     id="path913"
     sodipodi:nodetypes="cczzccc"
     inkscape:label="main_shape" /><path
     style="opacity:1;fill:#eeeeec;fill-opacity:1;fill-rule:evenodd;stroke:#50a1d9;stroke-width:2.11667;stroke-linecap:round;stroke-linejoin:round;stroke-dasharray:none;stroke-opacity:1"
     d="M 71.437499,65.616666 V 47.624999 c 0,0 -0.724748,-7.937499 9.260417,-7.937499 9.985165,0 9.260416,7.937499 9.260416,7.937499 v 6.614584 c 0,0 0.07737,5.953125 5.953125,5.953125 5.875753,0 5.953123,-5.953125 5.953123,-5.953125 v -6.614584 c 0,0 0.70547,-18.520832 -21.166664,-18.520833 -21.872136,-1e-6 -21.166667,18.520833 -21.166667,18.520833 v 42.06875 c 0,0 0.463201,13.493751 -13.229166,13.493751 -13.692367,0 -12.611508,-13.493751 -12.611508,-13.493751 0,-13.753017 12.611508,-13.49375 12.611508,-13.49375 h 9.260416 V 65.616666 h -9.260416 c 0,0 -23.866059,0.937462 -23.866059,24.077083 0,0 -1.127956,24.077081 23.866059,24.077081 24.994015,0 25.135416,-24.077081 25.135416,-24.077081 v -13.49375 h 9.260417 c 0,0 6.614583,0.455193 6.614583,-5.291667 0,-5.74686 -6.614583,-5.291666 -6.614583,-5.291666 z"
     id="path2949"
     sodipodi:nodetypes="cczcczcczcczcccccczccczcc" /></svg>
