<?xml version="1.0" encoding="UTF-8" standalone="no"?>
<!-- Created with Inkscape (http://www.inkscape.org/) -->

<svg
   width="512"
   height="512"
   viewBox="0 0 135.46667 135.46666"
   version="1.1"
   id="svg5"
   xml:space="preserve"
   inkscape:version="1.2.2 (b0a8486541, 2022-12-01)"
   sodipodi:docname="os_kali.svg"
   inkscape:export-filename="../../icons/256-96/os_arch.png"
   inkscape:export-xdpi="48"
   inkscape:export-ydpi="48"
   xmlns:inkscape="http://www.inkscape.org/namespaces/inkscape"
   xmlns:sodipodi="http://sodipodi.sourceforge.net/DTD/sodipodi-0.dtd"
   xmlns="http://www.w3.org/2000/svg"
   xmlns:svg="http://www.w3.org/2000/svg"><sodipodi:namedview
     id="namedview7"
     pagecolor="#ffffff"
     bordercolor="#000000"
     borderopacity="0.25"
     inkscape:showpageshadow="2"
     inkscape:pageopacity="0.0"
     inkscape:pagecheckerboard="0"
     inkscape:deskcolor="#d1d1d1"
     inkscape:document-units="px"
     showgrid="false"
     showguides="true"
     inkscape:lockguides="false"
     inkscape:zoom="1.28"
     inkscape:cx="210.9375"
     inkscape:cy="225"
     inkscape:window-width="1920"
     inkscape:window-height="1007"
     inkscape:window-x="1920"
     inkscape:window-y="0"
     inkscape:window-maximized="1"
     inkscape:current-layer="svg5"><sodipodi:guide
       position="2.6458333,135.46666"
       orientation="-1,0"
       id="guide20217"
       inkscape:locked="false"
       inkscape:label=""
       inkscape:color="rgb(0,134,229)" /><sodipodi:guide
       position="132.82083,135.46666"
       orientation="-1,0"
       id="guide20221"
       inkscape:locked="false"
       inkscape:label=""
       inkscape:color="rgb(0,134,229)" /><sodipodi:guide
       position="0,132.82083"
       orientation="0,1"
       id="guide20225"
       inkscape:locked="false"
       inkscape:label=""
       inkscape:color="rgb(0,134,229)" /><sodipodi:guide
       position="0,2.6458333"
       orientation="0,1"
       id="guide20227"
       inkscape:locked="false"
       inkscape:label=""
       inkscape:color="rgb(0,134,229)" /></sodipodi:namedview><defs
     id="defs2"><linearGradient
       id="linearGradient30939"
       inkscape:swatch="solid"><stop
         style="stop-color:#8cd2f2;stop-opacity:1;"
         offset="0"
         id="stop30937" /></linearGradient></defs><path
     style="display:inline;opacity:1;fill:#f9acac;fill-opacity:1;fill-rule:evenodd;stroke:#f25757;stroke-width:2.11667;stroke-linecap:round;stroke-linejoin:round;stroke-opacity:1"
     d="M 127.00452,117.63817 C 122.06461,97.141555 111.00716,82.466717 90.529721,81.74167 65.366984,86.397347 57.202432,58.539166 73.936055,47.161203 73.303382,43.409001 74.761205,38.92715 68.259739,38.864213 51.430093,39.193232 26.810401,49.272605 11.709028,55.996424 39.38914,39.234799 53.069931,36.486511 70.911904,35.092827 70.819491,34.835148 70.551695,34.548565 70.340955,34.393986 52.056136,33.826311 35.202669,33.509419 2.6423534,37.520504 29.693477,30.003732 51.560485,30.870147 69.178592,30.217792 55.898132,24.629059 30.063315,21.909977 8.6816405,20.457407 32.732543,19.589416 70.00622,21.120007 72.807456,28.885467 72.35845,31.12983 69.542638,41.407541 81.504154,44.4701 c 4.352401,-0.478257 9.587137,0.344061 16.461441,3.020541 -0.136156,-0.65277 -0.336531,-1.7186 -0.581359,-2.661338 1.694361,1.448317 3.176164,2.730592 4.521684,3.836977 0.0532,-0.838319 0.0251,-1.752018 0.0517,-2.519227 1.49936,1.845231 3.18346,3.906742 4.14703,5.077211 0.0241,-1.034049 0.0405,-2.014499 0.0129,-3.21686 1.97343,1.994404 4.04202,4.179241 5.40019,5.619814 0.76001,0.06209 1.58555,0.03535 2.24793,0.03876 0.83877,1.186384 1.97957,2.77393 3.03599,4.302064 0.0327,0.837609 -0.0349,1.812609 -0.0129,2.519225 1.95884,1.103136 3.99558,2.200676 5.90403,3.281455 -1.2509,0.824009 -2.22825,1.452991 -3.21686,2.105813 -1.68258,-1.274485 -3.31033,-2.668222 -5.09013,-3.824057 -2.0209,-1.312411 -4.09962,-2.235777 -6.31744,-3.513997 0.0192,-1.017578 0.0112,-2.159913 0.0258,-3.152262 -4.84764,-2.252036 -7.25429,-3.330545 -12.759344,-5.633976 -10.567406,-3.906112 -22.677725,-2.464445 -25.731335,9.571205 -1.641582,6.470213 0.550813,16.692102 14.074836,18.492095 10.16715,-0.336547 20.066413,0.06195 31.351973,4.695487 7.70038,3.25337 14.54894,9.348668 17.79104,19.11267 -5.1296,-8.776502 -12.14362,-15.730011 -22.6601,-17.404391 10.30391,9.122938 17.78754,19.565911 16.84329,33.420861 z"
     id="path375"
     sodipodi:nodetypes="ccccccccccccccccccccccccccccsccccc"
     inkscape:label="dragon" /><path
     style="opacity:1;fill:#f9acac;fill-opacity:1;fill-rule:evenodd;stroke:#f25757;stroke-width:2.11667;stroke-linecap:round;stroke-linejoin:round;stroke-opacity:1"
     d="m 80.653992,32.297769 c 14.506169,3.503773 23.979928,9.805534 32.535668,20.083998 -0.67353,0.01937 -1.52386,0.01809 -2.18868,0.01814 -6.27865,-7.941936 -16.286398,-15.81981 -30.346988,-20.102139 z"
     id="path5497"
     sodipodi:nodetypes="cccc"
     inkscape:label="line" /></svg>
