<?xml version="1.0" encoding="UTF-8" standalone="no"?>
<!-- Created with Inkscape (http://www.inkscape.org/) -->

<svg
   width="512"
   height="512"
   viewBox="0 0 135.46667 135.46666"
   version="1.1"
   id="svg5"
   xml:space="preserve"
   inkscape:version="1.2.2 (b0a8486541, 2022-12-01)"
   sodipodi:docname="os_linuxmint.svg"
   inkscape:export-filename="../../icons/256-96/os_linuxmint.png"
   inkscape:export-xdpi="48"
   inkscape:export-ydpi="48"
   xmlns:inkscape="http://www.inkscape.org/namespaces/inkscape"
   xmlns:sodipodi="http://sodipodi.sourceforge.net/DTD/sodipodi-0.dtd"
   xmlns="http://www.w3.org/2000/svg"
   xmlns:svg="http://www.w3.org/2000/svg"><sodipodi:namedview
     id="namedview7"
     pagecolor="#ffffff"
     bordercolor="#000000"
     borderopacity="0.25"
     inkscape:showpageshadow="2"
     inkscape:pageopacity="0.0"
     inkscape:pagecheckerboard="0"
     inkscape:deskcolor="#d1d1d1"
     inkscape:document-units="px"
     showgrid="false"
     showguides="true"
     inkscape:lockguides="false"
     inkscape:zoom="1.4142136"
     inkscape:cx="184.20131"
     inkscape:cy="265.87214"
     inkscape:window-width="1920"
     inkscape:window-height="1007"
     inkscape:window-x="1920"
     inkscape:window-y="0"
     inkscape:window-maximized="1"
     inkscape:current-layer="svg5"><sodipodi:guide
       position="2.6458333,135.46666"
       orientation="-1,0"
       id="guide20217"
       inkscape:locked="false"
       inkscape:label=""
       inkscape:color="rgb(0,134,229)" /><sodipodi:guide
       position="132.82083,135.46666"
       orientation="-1,0"
       id="guide20221"
       inkscape:locked="false"
       inkscape:label=""
       inkscape:color="rgb(0,134,229)" /><sodipodi:guide
       position="0,132.82083"
       orientation="0,1"
       id="guide20225"
       inkscape:locked="false"
       inkscape:label=""
       inkscape:color="rgb(0,134,229)" /><sodipodi:guide
       position="0,2.6458333"
       orientation="0,1"
       id="guide20227"
       inkscape:locked="false"
       inkscape:label=""
       inkscape:color="rgb(0,134,229)" /></sodipodi:namedview><defs
     id="defs2"><linearGradient
       id="linearGradient30939"
       inkscape:swatch="solid"><stop
         style="stop-color:#8cd2f2;stop-opacity:1;"
         offset="0"
         id="stop30937" /></linearGradient></defs><path
     style="display:inline;opacity:1;fill:#ccedab;fill-opacity:1;fill-rule:evenodd;stroke:#97db54;stroke-width:2.11666664;stroke-linecap:round;stroke-linejoin:round;stroke-dasharray:none;stroke-opacity:1"
     d="m 2.6886956,10.060408 86.6194194,0.39742 c 19.671175,0 43.407705,16.04353 43.407705,40.976256 l 0.0797,75.166716 -70.95174,-0.006 c -22.171278,0 -43.7441,-17.58978 -43.7441,-42.568462 L 18.02174,47.380672 2.6742663,47.381288 Z"
     id="path359"
     sodipodi:nodetypes="ccccccccc"
     inkscape:label="shape" /><path
     style="opacity:1;fill:#ffffff;fill-opacity:1;fill-rule:evenodd;stroke:#ededed;stroke-width:2.11667;stroke-linecap:round;stroke-linejoin:round;stroke-dasharray:none;stroke-opacity:1"
     d="m 47.456161,30.962511 0.0151,52.223624 c 0,5.213667 4.016152,11.607788 9.911429,11.607788 l 35.382962,0.09692 c 3.670782,0 11.872488,-1.002251 11.872488,-14.815216 l -0.0371,-23.719383 c 0,0 0.0622,-5.892063 -6.209146,-5.892063 -6.27131,0 -6.235384,5.816698 -6.235384,5.816698 l 0.137598,23.88787 H 80.821939 l 0.673227,-23.8125 c 0,0 -0.0717,-5.869764 -6.150927,-5.869764 -6.079223,0 -6.23347,5.869764 -6.23347,5.869764 l -0.01022,23.8125 -10.681877,-3e-6 -0.0119,-23.812477 c 0,-5.998775 5.105972,-16.668749 16.916796,-16.668749 6.960021,0 11.517642,4.762499 11.517642,4.762499 0,0 3.782587,-4.762499 11.532045,-4.762499 9.962435,0 16.966405,9.257249 16.966405,16.668749 l -0.0165,29.11657 c 0,9.12882 -8.99062,19.889221 -20.606421,19.889221 l -38.81884,-0.004 c -8.56283,0 -18.509971,-9.850329 -18.509971,-20.28451 l -0.005,-54.112023 z"
     id="path1869"
     sodipodi:nodetypes="cccccczcccczcccccccccccccc"
     inkscape:label="m" /></svg>
