<?xml version="1.0" encoding="UTF-8" standalone="no"?>
<!-- Created with Inkscape (http://www.inkscape.org/) -->

<svg
   width="512"
   height="512"
   viewBox="0 0 135.46667 135.46666"
   version="1.1"
   id="svg5"
   xml:space="preserve"
   inkscape:version="1.2.2 (b0a8486541, 2022-12-01)"
   sodipodi:docname="os_linux_dark.svg"
   inkscape:export-filename="../../icons/256-96/os_arch.png"
   inkscape:export-xdpi="48"
   inkscape:export-ydpi="48"
   xmlns:inkscape="http://www.inkscape.org/namespaces/inkscape"
   xmlns:sodipodi="http://sodipodi.sourceforge.net/DTD/sodipodi-0.dtd"
   xmlns="http://www.w3.org/2000/svg"
   xmlns:svg="http://www.w3.org/2000/svg"><sodipodi:namedview
     id="namedview7"
     pagecolor="#ffffff"
     bordercolor="#000000"
     borderopacity="0.25"
     inkscape:showpageshadow="2"
     inkscape:pageopacity="0.0"
     inkscape:pagecheckerboard="0"
     inkscape:deskcolor="#d1d1d1"
     inkscape:document-units="px"
     showgrid="false"
     showguides="true"
     inkscape:lockguides="false"
     inkscape:zoom="1.28"
     inkscape:cx="105.46875"
     inkscape:cy="225.78125"
     inkscape:window-width="1920"
     inkscape:window-height="1007"
     inkscape:window-x="1920"
     inkscape:window-y="0"
     inkscape:window-maximized="1"
     inkscape:current-layer="svg5"><sodipodi:guide
       position="2.6458333,135.46666"
       orientation="-1,0"
       id="guide20217"
       inkscape:locked="false"
       inkscape:label=""
       inkscape:color="rgb(0,134,229)" /><sodipodi:guide
       position="132.82083,135.46666"
       orientation="-1,0"
       id="guide20221"
       inkscape:locked="false"
       inkscape:label=""
       inkscape:color="rgb(0,134,229)" /><sodipodi:guide
       position="0,132.82083"
       orientation="0,1"
       id="guide20225"
       inkscape:locked="false"
       inkscape:label=""
       inkscape:color="rgb(0,134,229)" /><sodipodi:guide
       position="0,2.6458333"
       orientation="0,1"
       id="guide20227"
       inkscape:locked="false"
       inkscape:label=""
       inkscape:color="rgb(0,134,229)" /></sodipodi:namedview><defs
     id="defs2"><linearGradient
       id="linearGradient30939"
       inkscape:swatch="solid"><stop
         style="stop-color:#8cd2f2;stop-opacity:1;"
         offset="0"
         id="stop30937" /></linearGradient><radialGradient
       id="b-1"
       cx="65.467201"
       cy="61.952"
       r="39.291599"
       gradientTransform="matrix(1,0,0,3,0,-123.9039)"
       gradientUnits="userSpaceOnUse"><stop
         offset="0.42593944"
         style="stop-color:#303033;stop-opacity:1"
         id="stop6300" /><stop
         offset="0.8265"
         style="stop-color:#595859;stop-opacity:1"
         id="stop6302" /></radialGradient><radialGradient
       gradientUnits="userSpaceOnUse"
       gradientTransform="matrix(1,0,0,3,0,-123.9039)"
       r="39.291599"
       cy="61.952"
       cx="65.467201"
       id="b-09"><stop
         id="stop9-7"
         style="stop-color:#222223"
         offset="0.5153" /><stop
         id="stop11-0"
         style="stop-color:#414042"
         offset="0.8265" /></radialGradient><radialGradient
       gradientUnits="userSpaceOnUse"
       r="25.5763"
       cy="72.558296"
       cx="62.269001"
       id="w-0"><stop
         id="stop16-7-5"
         style="stop-color:#FFFFFF"
         offset="0" /><stop
         id="stop18-0-3"
         style="stop-color:#F1F2F2"
         offset="0.4235" /><stop
         id="stop20-0-7"
         style="stop-color:#E6E7E8"
         offset="0.6888" /><stop
         id="stop22-5-2"
         style="stop-color:#D1D3D4"
         offset="0.8724" /><stop
         id="stop24-1-9"
         style="stop-color:#BCBEC0"
         offset="1" /></radialGradient><linearGradient
       y2="36.469898"
       x2="55.064201"
       y1="34.530899"
       x1="55.064201"
       gradientUnits="userSpaceOnUse"
       id="alpha2-9"><stop
         id="stop111-6"
         style="stop-color:#FFFFFF;stop-opacity:0.4"
         offset="0" /><stop
         id="stop113-2"
         style="stop-color:#FFFFFF;stop-opacity:0.1"
         offset="0.4133" /><stop
         id="stop115-4"
         style="stop-color:#FFFFFF;stop-opacity:0"
         offset="0.7806" /></linearGradient><radialGradient
       gradientUnits="userSpaceOnUse"
       r="2.3979001"
       cy="36.276001"
       cx="55.452"
       id="b-7"><stop
         id="stop104-0-0-4"
         style="stop-color:#3D3D3E"
         offset="0" /><stop
         id="stop106-3-9-9"
         style="stop-color:#000000"
         offset="1" /></radialGradient><linearGradient
       y2="35.888199"
       x2="66.455704"
       y1="33.270599"
       x1="66.455704"
       gradientUnits="userSpaceOnUse"
       id="alpha1-6"><stop
         id="stop95-7"
         style="stop-color:#FFFFFF;stop-opacity:0.4"
         offset="0" /><stop
         id="stop97-3"
         style="stop-color:#FFFFFF;stop-opacity:0.1"
         offset="0.4133" /><stop
         id="stop99-0"
         style="stop-color:#FFFFFF;stop-opacity:0"
         offset="0.7806" /></linearGradient><radialGradient
       gradientUnits="userSpaceOnUse"
       r="3.1759"
       cy="35.742802"
       cx="67.2313"
       id="b-6"><stop
         id="stop88-6-2"
         style="stop-color:#3D3D3E"
         offset="0" /><stop
         id="stop90-3-6"
         style="stop-color:#000000"
         offset="1" /></radialGradient><radialGradient
       gradientUnits="userSpaceOnUse"
       r="5.2070999"
       cy="35.866001"
       cx="55.521301"
       id="w-1"><stop
         id="stop79-2-9"
         style="stop-color:#FFFFFF"
         offset="0.5612" /><stop
         id="stop81-5-9"
         style="stop-color:#F1F2F2"
         offset="0.75" /><stop
         id="stop83-2-1"
         style="stop-color:#BCBEC0"
         offset="1" /></radialGradient><radialGradient
       gradientUnits="userSpaceOnUse"
       r="6.3966999"
       cy="36.410301"
       cx="67.464699"
       id="w-7"><stop
         id="stop72-6-6"
         style="stop-color:#FFFFFF"
         offset="0.6735" /><stop
         id="stop74-0-0"
         style="stop-color:#BCBEC0"
         offset="1" /></radialGradient><radialGradient
       gradientUnits="userSpaceOnUse"
       r="2.3979001"
       cy="36.276001"
       cx="55.452"
       id="b-0"><stop
         id="stop104"
         style="stop-color:#373738;stop-opacity:1"
         offset="0" /><stop
         id="stop106"
         style="stop-color:#1a1a1a;stop-opacity:1"
         offset="1" /></radialGradient><linearGradient
       y2="43.391998"
       x2="72.872498"
       y1="43.391998"
       x1="51.662498"
       gradientUnits="userSpaceOnUse"
       id="y-5"><stop
         id="stop137-7"
         style="stop-color:#FFF33B"
         offset="0" /><stop
         id="stop139-2"
         style="stop-color:#FFE029"
         offset="5.948725e-002" /><stop
         id="stop141-5"
         style="stop-color:#FFD218"
         offset="0.1303" /><stop
         id="stop143-0"
         style="stop-color:#FEC90F"
         offset="0.2032" /><stop
         id="stop145-7"
         style="stop-color:#FDC70C"
         offset="0.2809" /><stop
         id="stop147-1"
         style="stop-color:#F3903F"
         offset="0.6685" /><stop
         id="stop149-9"
         style="stop-color:#ED683C"
         offset="1" /></linearGradient><linearGradient
       y2="43.546501"
       x2="73.233902"
       y1="43.546501"
       x1="51.6357"
       gradientUnits="userSpaceOnUse"
       id="y-9"><stop
         id="stop120-8"
         style="stop-color:#FDB93E"
         offset="0" /><stop
         id="stop122-9"
         style="stop-color:#FDB83C"
         offset="6.566175e-003" /><stop
         id="stop124-6"
         style="stop-color:#FAAE29"
         offset="9.430166e-002" /><stop
         id="stop126-0"
         style="stop-color:#F8A71E"
         offset="0.1846" /><stop
         id="stop128-1"
         style="stop-color:#F8A51B"
         offset="0.2809" /><stop
         id="stop130-2"
         style="stop-color:#C87833"
         offset="0.6685" /><stop
         id="stop132-2"
         style="stop-color:#B04D2A"
         offset="1" /></linearGradient><linearGradient
       y2="96.099297"
       x2="55.089001"
       y1="96.099297"
       x1="23.772301"
       gradientUnits="userSpaceOnUse"
       id="y-55"><stop
         id="stop48-0"
         style="stop-color:#ffd93b;stop-opacity:1;"
         offset="0" /><stop
         id="stop50-3"
         style="stop-color:#ffcc29;stop-opacity:1;"
         offset="0.05948725" /><stop
         id="stop52-5"
         style="stop-color:#ffbf18;stop-opacity:1;"
         offset="0.1303" /><stop
         id="stop54-0"
         style="stop-color:#feb20f;stop-opacity:1;"
         offset="0.2032" /><stop
         id="stop56-0"
         style="stop-color:#fda40c;stop-opacity:1;"
         offset="0.2809" /><stop
         id="stop58-2"
         style="stop-color:#f3923f;stop-opacity:1;"
         offset="0.66850001" /><stop
         id="stop60-8"
         style="stop-color:#ed683c;stop-opacity:1;"
         offset="1" /></linearGradient><radialGradient
       gradientUnits="userSpaceOnUse"
       r="5.8449998"
       cy="84.420303"
       cx="88.170097"
       id="b-9"><stop
         id="stop65-3"
         style="stop-color:#000000"
         offset="0.3673" /><stop
         id="stop67-4"
         style="stop-color:#3D3D3E"
         offset="1" /></radialGradient><radialGradient
       id="b-1-2"
       cx="65.467201"
       cy="61.952"
       r="39.291599"
       gradientTransform="matrix(1,0,0,3,0,-123.9039)"
       gradientUnits="userSpaceOnUse"><stop
         offset="0.42593944"
         style="stop-color:#18181a;stop-opacity:1"
         id="stop6300-6" /><stop
         offset="0.8265"
         style="stop-color:#333333;stop-opacity:1"
         id="stop6302-8" /></radialGradient><radialGradient
       gradientUnits="userSpaceOnUse"
       r="25.5763"
       cy="72.558296"
       cx="62.269001"
       id="w-0-2"><stop
         id="stop16-7-5-2"
         style="stop-color:#FFFFFF"
         offset="0" /><stop
         id="stop18-0-3-8"
         style="stop-color:#F1F2F2"
         offset="0.4235" /><stop
         id="stop20-0-7-0"
         style="stop-color:#E6E7E8"
         offset="0.6888" /><stop
         id="stop22-5-2-8"
         style="stop-color:#D1D3D4"
         offset="0.8724" /><stop
         id="stop24-1-9-0"
         style="stop-color:#BCBEC0"
         offset="1" /></radialGradient></defs><path
     style="display:inline;opacity:1;fill:#131515;fill-opacity:1;fill-rule:evenodd;stroke:#88868a;stroke-width:2.11667;stroke-linecap:round;stroke-linejoin:round;stroke-opacity:1"
     d="m 27.611808,94.638671 c -0.1306,-0.671183 -0.920492,-2.624915 -0.790893,-4.60225 0.129599,-1.977335 5.657852,-15.667913 8.532265,-22.015804 2.874413,-6.347891 7.465599,-11.597943 11.236283,-16.023121 3.770684,-4.425178 2.635438,-8.418643 2.375148,-14.908628 C 48.704321,30.598883 46.598003,19.48388 49.731969,13.08159 52.865935,6.6792996 57.245436,2.5399784 67.563856,2.6309344 c 10.31842,0.090956 15.163604,5.3530664 18.270379,11.1449306 3.106775,5.791864 1.632781,11.475906 2.228985,17.97805 0.596204,6.502144 3.116015,12.923228 7.161987,19.476223 4.045972,6.552995 10.428473,12.842146 13.337373,20.645527 2.9089,7.803381 4.87727,15.31929 3.54446,25.140041 -1.33281,9.820754 -23.88812,31.677614 -28.538332,29.963424 -4.650212,-1.71419 -17.938873,-2.50176 -27.11324,-0.58466 -9.174367,1.9171 -28.71306,-31.084616 -28.84366,-31.755799 z"
     id="path20913"
     sodipodi:nodetypes="zzzzzzzzzzzzzzz"
     inkscape:label="torso" /><path
     style="display:inline;opacity:1;fill:#88868a;fill-opacity:1;fill-rule:evenodd;stroke:#4e4e50;stroke-width:2.11667;stroke-linecap:round;stroke-linejoin:round;stroke-opacity:1"
     d="m 37.433115,90.860085 c -0.0058,-7.016797 0.745904,-11.616356 3.494619,-16.394348 2.748715,-4.777992 4.122032,-9.119744 5.684409,-13.487548 1.562377,-4.367804 5.230265,-8.021655 6.097817,-12.609049 0.80358,-4.249125 -0.993155,-12.935257 -0.993155,-12.935257 0,0 -3.115794,-12.450218 3.807953,-13.881676 6.923748,-1.431458 6.990804,8.725337 6.990804,8.725337 l -1.899108,8.221397 8.113201,-0.103352 -3.010153,-7.890344 c 0,0 0.2112,-11.370713 8.022768,-9.912187 7.811567,1.458526 4.741311,14.737472 4.741311,14.737472 0,0 0.657117,5.226326 1.188559,7.803142 0.292416,1.417846 0.625207,2.833675 1.098123,4.201939 2.343717,6.780964 5.785372,12.357756 8.578287,19.740399 2.792915,7.382643 4.819379,16.856515 4.082438,24.546303 -0.736941,7.689788 -4.109003,13.241187 -8.836668,18.706877 -2.962941,3.42548 -6.529923,6.49544 -11.833904,8.42325 -5.303981,1.92781 -12.102039,1.88191 -20.205485,-1.29191 -6.420111,-0.38213 -11.480613,3.86369 -15.709636,-0.98185 -5.616657,-6.43546 0.593617,-18.601798 0.58782,-25.618595 z"
     id="path11908"
     sodipodi:nodetypes="zzzcczcccczcsczzczccz"
     inkscape:label="drawing_on_torso" /><path
     style="display:inline;opacity:1;fill:#b27c00;fill-opacity:1;fill-rule:evenodd;stroke:#ffd166;stroke-width:2.11667;stroke-linecap:round;stroke-linejoin:round;stroke-opacity:1"
     d="m 54.893349,127.1664 c 3.178448,-5.50523 -1.636308,-11.52561 -1.636308,-11.52561 0,0 -3.682036,-4.74929 -5.534815,-7.11475 -4.706073,-6.00829 -8.365897,-17.476615 -14.177812,-17.978049 -3.781192,-0.32623 -6.292113,4.706264 -8.477456,7.600478 -2.200323,2.559241 -7.746045,-0.07577 -9.719841,2.777101 -2.903972,4.35149 1.321529,7.12907 0.876978,10.6699 -0.381955,3.04225 -2.37429,4.66 -2.996342,8.6967 -0.125855,3.1688 3.989973,4.09699 3.989973,4.09699 l 17.569074,4.30738 7.030154,2.10543 c 0,0 9.325949,2.86039 13.076395,-3.63557 z"
     id="path954"
     sodipodi:nodetypes="cccccccccccc"
     inkscape:label="left_paw" /><path
     style="display:inline;opacity:1;fill:#b27c00;fill-opacity:1;fill-rule:evenodd;stroke:#ffd166;stroke-width:2.11667;stroke-linecap:round;stroke-linejoin:round;stroke-opacity:1"
     d="m 88.123453,131.46256 c -1.070567,-0.6181 -4.693583,-2.80371 -3.888195,-10.48157 0,0 1.272399,-11.16519 1.272399,-19.4625 0,-2.249084 -0.703042,-4.433036 1.771867,-6.602049 2.14996,-1.884227 5.22129,-0.686081 5.22129,-0.686081 l 6.743012,6.13512 9.152994,-6.982184 c 3.03819,1.582792 2.48363,5.765488 4.63246,8.755174 2.23228,2.70948 2.41308,2.42315 4.06951,3.16518 1.48516,0.62406 2.59662,0.65205 3.5786,1.67948 1.60132,2.01729 1.7066,5.26193 -1.84098,8.31345 0,0 -11.63048,9.59163 -18.90711,14.97324 -1.930901,1.36339 -3.568113,2.36457 -6.469242,2.5483 -2.221903,0.14068 -4.518573,-0.88327 -5.336605,-1.35556 z"
     id="path5647"
     sodipodi:nodetypes="cccccccccccccc"
     inkscape:label="right_paw" /><circle
     style="opacity:1;fill:#fcf7ff;fill-opacity:1;fill-rule:evenodd;stroke:#4e4e50;stroke-width:2.11667;stroke-linecap:round;stroke-linejoin:round;stroke-opacity:1"
     id="path17191"
     cx="56.592224"
     cy="30.450451"
     r="2.8319085"
     inkscape:label="left_pupil" /><circle
     style="opacity:1;fill:#fcf7ff;fill-opacity:1;fill-rule:evenodd;stroke:#4e4e50;stroke-width:2.11667;stroke-linecap:round;stroke-linejoin:round;stroke-opacity:1"
     id="circle20428"
     cx="72.301865"
     cy="30.088717"
     r="3.175"
     inkscape:label="right_pupil" /><path
     style="display:inline;opacity:1;fill:#b27c00;fill-opacity:1;fill-rule:evenodd;stroke:#ffd166;stroke-width:2.11667;stroke-linecap:round;stroke-linejoin:round;stroke-opacity:1"
     d="m 51.942684,36.632107 c 2.174744,-1.956858 5.115174,-2.855797 7.78318,-4.056023 1.135656,-0.510885 2.248294,-1.234876 3.489642,-1.333738 1.364482,-0.108669 2.707157,0.45131 4.019484,0.840436 3.645427,1.080927 8.763055,3.363915 10.63336,4.129106 1.870305,0.765191 2.258424,1.376038 2.521313,2.539582 0.271667,1.202397 -0.394211,2.578149 -1.224116,3.489642 -3.483908,3.826413 -8.929966,6.515204 -14.104731,6.485985 -4.083522,-0.02306 -7.98067,-2.575211 -11.071849,-5.243599 -1.502364,-1.29688 -3.303891,-2.966585 -3.30694,-4.951273 -0.0012,-0.760094 0.695629,-1.3917 1.260657,-1.900118 z"
     id="path7383"
     sodipodi:nodetypes="cccczcccccc"
     inkscape:label="beak" /><path
     style="display:inline;opacity:1;fill:none;fill-opacity:1;fill-rule:evenodd;stroke:#ffd166;stroke-width:2.11667;stroke-linecap:round;stroke-linejoin:round;stroke-opacity:1"
     d="m 50.668742,38.834837 c 0,0 7.179295,4.925288 12.391325,5.098996 5.21203,0.173708 17.141755,-4.89229 17.141755,-4.89229"
     id="path9254"
     sodipodi:nodetypes="czc"
     inkscape:label="mouth" /><path
     style="opacity:1;fill:#4e4e50;fill-opacity:1;fill-rule:evenodd;stroke:#88868a;stroke-width:2.11667;stroke-linecap:round;stroke-linejoin:round;stroke-opacity:1"
     d="m 99.47713,103.04281 c -4.579543,-0.0588 -7.157958,-3.236253 -7.105509,-7.544764 0.05245,-4.308511 3.46825,-6.478419 6.847128,-6.924641 3.378881,-0.446222 8.683101,1.08471 9.250081,5.400186 0.56698,4.315476 -4.41216,9.128029 -8.9917,9.069219 z"
     id="path23274"
     sodipodi:nodetypes="zzzzz"
     inkscape:label="hand" /></svg>
