<?xml version="1.0" encoding="UTF-8" standalone="no"?>
<!-- Created with Inkscape (http://www.inkscape.org/) -->

<svg
   width="512"
   height="512"
   viewBox="0 0 135.46667 135.46666"
   version="1.1"
   id="svg5"
   xml:space="preserve"
   inkscape:version="1.2.2 (b0a8486541, 2022-12-01)"
   sodipodi:docname="os_pclinuxos.svg"
   inkscape:export-filename="../../icons/256-96/os_ubuntu.png"
   inkscape:export-xdpi="48"
   inkscape:export-ydpi="48"
   xmlns:inkscape="http://www.inkscape.org/namespaces/inkscape"
   xmlns:sodipodi="http://sodipodi.sourceforge.net/DTD/sodipodi-0.dtd"
   xmlns="http://www.w3.org/2000/svg"
   xmlns:svg="http://www.w3.org/2000/svg"><sodipodi:namedview
     id="namedview7"
     pagecolor="#ffffff"
     bordercolor="#000000"
     borderopacity="0.25"
     inkscape:showpageshadow="2"
     inkscape:pageopacity="0.0"
     inkscape:pagecheckerboard="0"
     inkscape:deskcolor="#d1d1d1"
     inkscape:document-units="px"
     showgrid="false"
     showguides="true"
     inkscape:lockguides="false"
     inkscape:zoom="2"
     inkscape:cx="225.5"
     inkscape:cy="199.5"
     inkscape:window-width="1920"
     inkscape:window-height="1007"
     inkscape:window-x="1920"
     inkscape:window-y="0"
     inkscape:window-maximized="1"
     inkscape:current-layer="svg5"><sodipodi:guide
       position="2.6458333,135.46666"
       orientation="-1,0"
       id="guide20217"
       inkscape:locked="false"
       inkscape:label=""
       inkscape:color="rgb(0,134,229)" /><sodipodi:guide
       position="132.82083,135.46666"
       orientation="-1,0"
       id="guide20221"
       inkscape:locked="false"
       inkscape:label=""
       inkscape:color="rgb(0,134,229)" /><sodipodi:guide
       position="0,132.82083"
       orientation="0,1"
       id="guide20225"
       inkscape:locked="false"
       inkscape:label=""
       inkscape:color="rgb(0,134,229)" /><sodipodi:guide
       position="0,2.6458333"
       orientation="0,1"
       id="guide20227"
       inkscape:locked="false"
       inkscape:label=""
       inkscape:color="rgb(0,134,229)" /><sodipodi:guide
       position="67.733332,135.46666"
       orientation="-1,0"
       id="guide4570"
       inkscape:locked="false"
       inkscape:label=""
       inkscape:color="rgb(0,134,229)" /><sodipodi:guide
       position="0,67.733332"
       orientation="0,1"
       id="guide4572"
       inkscape:locked="false"
       inkscape:label=""
       inkscape:color="rgb(0,134,229)" /></sodipodi:namedview><defs
     id="defs2"><linearGradient
       id="linearGradient30939"
       inkscape:swatch="solid"><stop
         style="stop-color:#8cd2f2;stop-opacity:1;"
         offset="0"
         id="stop30937" /></linearGradient><inkscape:path-effect
       effect="spiro"
       id="path-effect4857"
       is_visible="true" /><inkscape:path-effect
       effect="spiro"
       id="path-effect4857-3"
       is_visible="true" /></defs><g
     id="g1899"
     transform="matrix(1.4304945,0,0,1.4304945,-23.818315,-23.818347)"
     style="opacity:1"><g
       inkscape:label="Layer 1"
       id="layer1"
       transform="translate(0,-924.36216)"
       style="display:inline"><circle
         style="color:#000000;clip-rule:nonzero;display:inline;overflow:visible;visibility:visible;opacity:1;isolation:auto;mix-blend-mode:normal;color-interpolation:sRGB;color-interpolation-filters:linearRGB;solid-color:#000000;solid-opacity:1;fill:#1756b6;fill-opacity:1;fill-rule:nonzero;stroke:none;stroke-width:1;stroke-linecap:butt;stroke-linejoin:miter;stroke-miterlimit:4;stroke-dasharray:none;stroke-dashoffset:0;stroke-opacity:1;color-rendering:auto;image-rendering:auto;shape-rendering:auto;text-rendering:auto;enable-background:accumulate"
         id="path4683"
         cx="64"
         cy="988.36218"
         r="45.5" /></g><g
       id="layer2"
       inkscape:label="Layer 2"
       style="display:inline"><circle
         r="41"
         cy="64"
         cx="64"
         style="display:inline;fill:#33333d;fill-opacity:1;fill-rule:nonzero;stroke:none"
         id="path3862" /></g><g
       id="layer3"
       inkscape:label="Layer 3"
       style="display:inline"><g
         style="font-style:normal;font-variant:normal;font-weight:bold;font-stretch:normal;font-size:15px;line-height:125%;font-family:'Droid Sans';-inkscape-font-specification:'Droid Sans Bold';letter-spacing:0px;word-spacing:0px;fill:#f9f9f9;fill-opacity:1;stroke:none;stroke-width:1px;stroke-linecap:butt;stroke-linejoin:miter;stroke-opacity:1"
         id="text4147"
         transform="matrix(0.9838803,0,0,1.0395935,1.0316613,-2.5339856)"><path
           d="m 28.664307,63.956055 h 0.446777 q 0.959473,0 1.442871,-0.38086 0.490723,-0.380859 0.490723,-1.237793 0,-0.79834 -0.439453,-1.179199 -0.432129,-0.380859 -1.362305,-0.380859 h -0.578613 z m 4.680175,-1.699219 q 0,0.703125 -0.212402,1.347656 -0.212402,0.644531 -0.703125,1.135254 -0.483398,0.490723 -1.281738,0.783691 -0.791016,0.292969 -1.962891,0.292969 H 28.664307 V 69.625 H 26.393799 V 58.916992 h 2.973633 q 1.032714,0 1.779785,0.234375 0.754394,0.227051 1.237793,0.65918 0.490722,0.424805 0.725097,1.047363 0.234375,0.615235 0.234375,1.398926 z"
           style="fill:#1756b6;fill-opacity:1"
           id="path4152"
           inkscape:connector-curvature="0" /><path
           d="m 39.760498,60.652832 q -0.651855,0 -1.157227,0.256348 -0.498046,0.249023 -0.842285,0.725097 -0.336914,0.46875 -0.512695,1.149903 -0.175781,0.673828 -0.175781,1.516113 0,0.856934 0.153808,1.523437 0.161133,0.666504 0.483399,1.12793 0.32959,0.454102 0.834961,0.695801 0.512695,0.234375 1.21582,0.234375 0.651856,0 1.303711,-0.146484 0.65918,-0.146485 1.428223,-0.417481 v 1.904297 q -0.351563,0.146484 -0.695801,0.249023 -0.344238,0.102539 -0.703125,0.168457 -0.358887,0.06592 -0.739746,0.09522 -0.373535,0.03662 -0.805664,0.03662 -1.237793,0 -2.145996,-0.395507 -0.908204,-0.395508 -1.501465,-1.113282 -0.593262,-0.717773 -0.878906,-1.728515 -0.285645,-1.010743 -0.285645,-2.248535 0,-1.215821 0.32959,-2.226563 0.32959,-1.018066 0.966797,-1.750488 0.637207,-0.732422 1.574707,-1.135254 0.9375,-0.410156 2.15332,-0.410156 0.79834,0 1.59668,0.205078 0.805664,0.197754 1.538086,0.549316 l -0.732422,1.845703 q -0.600586,-0.285644 -1.208496,-0.498047 -0.60791,-0.212402 -1.193848,-0.212402 z"
           style="fill:#1756b6;fill-opacity:1"
           id="path4154"
           inkscape:connector-curvature="0" /><path
           d="M 44.762939,69.625 V 58.916992 h 2.270508 V 67.75 h 3.896485 v 1.875 z"
           id="path4156"
           inkscape:connector-curvature="0"
           style="fill:#f2f2f2;fill-opacity:1" /><path
           d="m 52.519287,59.319824 q 0,-0.314941 0.09522,-0.520019 0.09521,-0.212403 0.256348,-0.336914 0.168457,-0.131836 0.388183,-0.183106 0.227051,-0.05127 0.476074,-0.05127 0.249024,0 0.46875,0.05127 0.219727,0.05127 0.38086,0.183106 0.168457,0.124511 0.263672,0.336914 0.102539,0.205078 0.102539,0.520019 0,0.307617 -0.102539,0.52002 -0.09521,0.212402 -0.263672,0.344238 -0.161133,0.124512 -0.38086,0.183105 -0.219726,0.05127 -0.46875,0.05127 -0.249023,0 -0.476074,-0.05127 -0.219726,-0.05859 -0.388183,-0.183105 -0.161133,-0.131836 -0.256348,-0.344238 -0.09522,-0.212403 -0.09522,-0.52002 z M 54.848389,69.625 h -2.233887 v -8.188477 h 2.233887 z"
           id="path4158"
           inkscape:connector-curvature="0"
           style="fill:#f2f2f2;fill-opacity:1" /><path
           d="M 64.289307,69.625 H 62.05542 v -4.782715 q 0,-0.88623 -0.270996,-1.325683 -0.263672,-0.446778 -0.84961,-0.446778 -0.439453,0 -0.732421,0.175781 -0.292969,0.175782 -0.46875,0.52002 -0.168457,0.344238 -0.2417,0.849609 -0.07324,0.505371 -0.07324,1.157227 V 69.625 h -2.233887 v -8.188477 h 1.706543 l 0.300293,1.047364 h 0.124512 q 0.175781,-0.314942 0.424805,-0.541992 0.256347,-0.227051 0.55664,-0.373536 0.300293,-0.146484 0.637207,-0.212402 0.336915,-0.07324 0.688477,-0.07324 0.600586,0 1.091309,0.175781 0.490722,0.168457 0.842285,0.534668 0.351562,0.366211 0.541992,0.9375 0.19043,0.563965 0.19043,1.354981 v 5.339355 z"
           id="path4160"
           inkscape:connector-curvature="0"
           style="fill:#f2f2f2;fill-opacity:1" /><path
           d="m 71.943115,69.625 -0.300293,-1.047363 h -0.117187 q -0.183106,0.314941 -0.439453,0.541992 -0.249024,0.219726 -0.549317,0.366211 -0.300293,0.146484 -0.637207,0.212402 -0.336914,0.07324 -0.688476,0.07324 -0.600586,0 -1.091309,-0.168457 -0.490723,-0.175781 -0.842285,-0.541992 -0.351563,-0.366211 -0.541992,-0.930176 -0.19043,-0.563964 -0.19043,-1.35498 v -5.339356 h 2.233887 v 4.782715 q 0,0.886231 0.263672,1.333008 0.270996,0.439453 0.856933,0.439453 0.439453,0 0.732422,-0.175781 0.292969,-0.175781 0.461426,-0.52002 0.175781,-0.344238 0.249023,-0.849609 0.07324,-0.505371 0.07324,-1.157227 v -3.852539 h 2.233887 v 8.188477 h -1.706543 z"
           id="path4162"
           inkscape:connector-curvature="0"
           style="fill:#f2f2f2;fill-opacity:1" /><path
           d="m 77.670654,65.442871 -2.636718,-4.006348 h 2.534179 l 1.362305,2.460938 1.384277,-2.460938 h 2.53418 l -2.67334,4.006348 2.790527,4.182129 H 80.431885 L 78.93042,66.973633 77.428955,69.625 h -2.53418 z"
           id="path4165"
           inkscape:connector-curvature="0"
           style="fill:#f2f2f2;fill-opacity:1" /><path
           d="m 93.527588,64.256348 q 0,1.237793 -0.292969,2.255859 -0.285644,1.018066 -0.878906,1.743164 -0.593262,0.725098 -1.501465,1.120606 -0.900879,0.395507 -2.131348,0.395507 -1.230468,0 -2.138671,-0.395507 -0.900879,-0.395508 -1.494141,-1.120606 -0.585938,-0.725098 -0.878906,-1.743164 -0.285645,-1.025391 -0.285645,-2.270508 0,-1.245117 0.285645,-2.255859 0.292968,-1.018067 0.88623,-1.73584 0.593262,-0.717773 1.494141,-1.105957 0.908203,-0.395508 2.145996,-0.395508 1.230469,0 2.131347,0.395508 0.900879,0.388184 1.486817,1.113281 0.593262,0.717774 0.878906,1.73584 0.292969,1.010742 0.292969,2.263184 z m -7.265625,0 q 0,0.842285 0.146484,1.516113 0.146485,0.666504 0.446778,1.135254 0.307617,0.461426 0.769043,0.710449 0.461425,0.249023 1.098632,0.249023 0.651856,0 1.113282,-0.249023 0.46875,-0.249023 0.761718,-0.710449 0.300293,-0.46875 0.439454,-1.135254 0.146484,-0.673828 0.146484,-1.516113 0,-0.842286 -0.146484,-1.508789 Q 90.898193,62.07373 90.5979,61.60498 90.304932,61.13623 89.843506,60.887207 89.38208,60.638184 88.737549,60.638184 q -0.637207,0 -1.105957,0.249023 -0.46875,0.249023 -0.776367,0.717773 -0.300293,0.46875 -0.446778,1.142579 -0.146484,0.666503 -0.146484,1.508789 z"
           style="fill:#1756b6;fill-opacity:1"
           id="path4167"
           inkscape:connector-curvature="0" /><path
           d="m 101.6062,66.651367 q 0,0.717774 -0.24902,1.296387 -0.2417,0.571289 -0.71778,0.981445 -0.46875,0.402832 -1.157222,0.622559 -0.681153,0.219726 -1.567383,0.219726 -0.776367,0 -1.501465,-0.161132 -0.717773,-0.161133 -1.333008,-0.483399 v -2.109375 q 0.351563,0.168457 0.710449,0.32959 0.358887,0.153809 0.725098,0.27832 0.373535,0.124512 0.739746,0.197754 0.373535,0.07324 0.739746,0.07324 0.373535,0 0.637207,-0.08057 0.270996,-0.08789 0.432129,-0.234375 0.168457,-0.153809 0.241699,-0.358887 0.08057,-0.212402 0.08057,-0.461426 0,-0.300293 -0.131836,-0.527343 -0.124515,-0.234369 -0.35889,-0.432123 -0.227051,-0.205078 -0.55664,-0.395508 -0.322266,-0.19043 -0.725098,-0.402832 -0.336914,-0.175781 -0.754395,-0.424805 -0.41748,-0.249023 -0.791015,-0.615234 -0.366211,-0.373535 -0.615235,-0.893555 -0.249023,-0.527344 -0.249023,-1.259765 0,-0.717774 0.234375,-1.281739 0.241699,-0.571289 0.681152,-0.959472 0.439453,-0.395508 1.062012,-0.600586 0.629883,-0.205078 1.40625,-0.205078 0.388184,0 0.754395,0.05127 0.373535,0.05127 0.732422,0.146484 0.36621,0.09521 0.73242,0.234375 0.36621,0.139161 0.7544,0.322266 l -0.73243,1.765137 q -0.32959,-0.153809 -0.61523,-0.270996 -0.285645,-0.117188 -0.556641,-0.197754 -0.270996,-0.08057 -0.534668,-0.117188 -0.256348,-0.04395 -0.52002,-0.04395 -0.571289,0 -0.878906,0.307617 -0.300293,0.300293 -0.300293,0.805664 0,0.270996 0.08789,0.483399 0.09522,0.205078 0.292969,0.388183 0.205078,0.183106 0.520019,0.373535 0.322266,0.19043 0.776367,0.432129 0.549317,0.292969 1.010743,0.600586 0.46143,0.300293 0.79102,0.673828 0.33691,0.366211 0.52002,0.834961 0.1831,0.46875 0.1831,1.098633 z"
           style="fill:#1756b6;fill-opacity:1"
           id="path4169"
           inkscape:connector-curvature="0" /></g></g></g><circle
     style="display:inline;opacity:1;fill:#add4f3;fill-opacity:1;fill-rule:evenodd;stroke:#5aa9e6;stroke-width:2.11667;stroke-linecap:round;stroke-linejoin:round;stroke-opacity:1"
     id="path8457"
     cx="67.733337"
     cy="67.733337"
     r="65.087502"
     inkscape:label="main_shape" /><circle
     style="display:inline;opacity:1;fill:#cccccc;fill-opacity:1;fill-rule:evenodd;stroke:#5aa9e6;stroke-width:2.11667;stroke-linecap:round;stroke-linejoin:round;stroke-opacity:1"
     id="circle883"
     cx="67.733337"
     cy="67.733337"
     inkscape:label="inner_circe"
     r="58.737499" /><path
     style="opacity:1;fill:#add4f3;fill-rule:evenodd;stroke:#5aa9e6;stroke-width:2.11667;stroke-linecap:round;stroke-linejoin:round;stroke-opacity:1;fill-opacity:1"
     d="M 14.804264,76.096647 V 60.17824 h 4.559928 c 0,0 5.222942,-0.52201 5.222942,5.125267 0,5.647278 -5.222942,5.125268 -5.222942,5.125268 l -1.36219,0.0062 -0.0021,5.662703 z"
     id="path2766"
     sodipodi:nodetypes="ccczcccc" /><path
     style="opacity:1;fill:#add4f3;fill-rule:evenodd;stroke:#5aa9e6;stroke-width:2.11667;stroke-linecap:round;stroke-linejoin:round;stroke-opacity:1;fill-opacity:1"
     d="m 36.992057,63.814192 c 0.419,-0.740217 0.717502,-1.833255 1.033528,-2.745052 -1.168751,-0.648905 -3.02304,-1.195065 -4.601024,-1.13061 -1.443352,0.05896 -2.940908,0.525573 -4.110107,1.373934 -0.918983,0.666806 -1.567358,1.698732 -2.028742,2.736173 -0.50895,1.144396 -0.690341,2.431926 -0.742509,3.683306 -0.0563,1.350599 -0.01906,2.767171 0.467723,4.028253 0.528162,1.368275 1.350721,2.749281 2.560778,3.578071 1.085681,0.743603 2.508139,0.948292 3.823623,0.982215 1.383487,0.03568 2.831714,-0.278297 4.069178,-0.824359 0.04801,-0.708924 0.02609,-1.853537 -0.0058,-2.835561 -1.255722,0.487828 -2.69062,1.080765 -4.045794,0.836052 -1.146145,-0.206968 -2.316841,-0.887099 -2.958337,-1.859193 -0.728125,-1.103368 -0.687895,-2.596965 -0.619734,-3.91717 0.06135,-1.188246 0.190733,-2.507686 0.917906,-3.449446 0.622987,-0.806828 1.647544,-1.391432 2.660165,-1.508403 1.235282,-0.142691 2.58319,0.507412 3.579146,1.05179 z"
     id="path2864"
     sodipodi:nodetypes="ccccccccccccccccc" /><path
     style="opacity:1;fill:#fcf7ff;fill-rule:evenodd;stroke:#88868a;stroke-width:2.11667;stroke-linecap:round;stroke-linejoin:round;fill-opacity:1"
     d="m 40.659015,60.172036 3.187404,-0.0041 0.0054,13.138698 5.484037,0.0029 v 2.78879 l -8.676852,-0.0058 z"
     id="path2866"
     sodipodi:nodetypes="ccccccc" /><path
     style="opacity:1;fill:#fcf7ff;fill-rule:evenodd;stroke:#88868a;stroke-width:2.11667;stroke-linecap:round;stroke-linejoin:round;fill-opacity:1"
     d="m 51.709505,76.084244 h 3.141927 V 63.913411 h -3.175 z"
     id="path2868"
     sodipodi:nodetypes="ccccc" /><path
     style="opacity:1;fill:#fcf7ff;fill-rule:evenodd;stroke:#88868a;stroke-width:2.11667;stroke-linecap:round;stroke-linejoin:round;fill-opacity:1"
     d="m 58.109114,76.117317 c 0.866017,-5.1e-5 2.351446,-0.03326 3.175,0 -0.03433,-1.834288 -0.0136,-4.302981 0,-6.449219 0.008,-1.263497 0.208222,-3.307292 1.852083,-3.307292 2.090345,0 1.79765,2.051633 1.852083,3.307292 0.06043,2.085961 -0.04055,4.721945 0,6.416146 1.108259,0.06646 2.132887,3.16e-4 3.158464,0 0.01703,-2.66286 0.0076,-5.663676 0,-8.350912 -0.137547,-2.357334 -0.928793,-3.42866 -2.505274,-3.894336 -1.585665,-0.408713 -3.458297,0.251991 -4.60056,1.652228 -0.213148,-0.656541 -0.352753,-0.940133 -0.500937,-1.59435 -0.729595,-0.03944 -1.383577,-0.0055 -2.397786,0 -0.02348,3.422199 8.47e-4,8.773912 -0.03307,12.220443 z"
     id="path2870"
     sodipodi:nodetypes="cccccccccccccc" /><path
     style="opacity:1;fill:#fcf7ff;fill-rule:evenodd;stroke:#88868a;stroke-width:2.11667;stroke-linecap:round;stroke-linejoin:round;fill-opacity:1"
     d="m 53.226726,62.405765 c -0.755643,0.0061 -1.630453,-0.78841 -1.660411,-1.543484 -0.03062,-0.771803 0.79613,-1.656383 1.566867,-1.707185 0.806209,-0.05314 1.83151,0.747692 1.859193,1.555176 0.02796,0.815487 -0.949709,1.688879 -1.765649,1.695493 z"
     id="path2872"
     sodipodi:nodetypes="sssss" /><path
     style="opacity:1;fill:#fcf7ff;fill-rule:evenodd;stroke:#88868a;stroke-width:2.11667;stroke-linecap:round;stroke-linejoin:round;fill-opacity:1"
     d="m 71.280781,63.914165 v 8.091585 c 0,0 -0.180848,2.937922 1.894274,3.882091 3.042565,1.38435 5.215096,-1.403165 5.215096,-1.403165 l 0.537879,1.566868 h 2.385381 V 63.914165 h -3.133733 v 6.314244 c 0,0 0.149154,3.414368 -1.987818,3.414368 -1.861681,0 -1.753957,-3.086965 -1.753957,-3.086965 v -6.665031 z"
     id="path2874"
     sodipodi:nodetypes="ccsccccccsccc" /><path
     style="opacity:1;fill:#fcf7ff;fill-rule:evenodd;stroke:#88868a;stroke-width:2.11667;stroke-linecap:round;stroke-linejoin:round;fill-opacity:1"
     d="m 83.277844,63.937551 h 3.601455 l 1.870886,3.57807 1.917659,-3.57807 3.648231,-0.04677 -3.788547,5.986835 3.928864,6.197312 -3.601458,0.04677 -2.151521,-3.928861 -2.08136,3.882088 -3.578072,0.02339 3.905478,-6.197312 z"
     id="path2876"
     sodipodi:nodetypes="ccccccccccccc" /><path
     style="opacity:1;fill:#add4f3;fill-rule:evenodd;stroke:#5aa9e6;stroke-width:2.11666;stroke-linecap:round;stroke-linejoin:round;stroke-opacity:1;fill-opacity:1"
     d="m 102.26733,59.915146 c -4.323035,0.06504 -6.423795,4.244332 -6.501315,7.740792 -0.0776,3.496462 1.92678,8.629466 6.618255,8.629466 4.69148,0 6.966,-4.960134 6.8755,-8.535922 -0.0904,-3.575788 -2.6694,-7.899378 -6.99244,-7.834336 z"
     id="path2878"
     sodipodi:nodetypes="zzzzz" /><path
     style="opacity:1;fill:#cccccc;fill-rule:evenodd;stroke:#5aa9e6;stroke-width:2.11667;stroke-linecap:round;stroke-linejoin:round;stroke-opacity:1"
     d="m 99.086835,67.726096 c 0.03134,-2.137268 0.909018,-4.981233 3.367595,-4.981233 2.45858,0 3.39558,2.845812 3.50791,4.957849 0.11233,2.112037 -0.52327,5.701107 -3.22728,5.776362 -2.70401,0.07525 -3.679566,-3.61571 -3.648225,-5.752978 z"
     id="path2880"
     sodipodi:nodetypes="zzzzz" /><path
     style="opacity:1;fill:#add4f3;fill-rule:evenodd;stroke:#5aa9e6;stroke-width:2.11666;stroke-linecap:round;stroke-linejoin:round;stroke-opacity:1;fill-opacity:1"
     d="m 119.59643,63.680304 1.0056,-2.61924 c -2.41374,-1.124268 -6.2883,-2.433442 -8.7464,1.824114 -1.06404,1.920646 0.2472,4.47065 2.10474,5.706204 1.89876,1.124162 4.1799,2.185742 3.48454,3.741774 -0.81436,1.822312 -3.93034,0.753986 -5.98684,-0.11692 0.0276,0.811768 -0.061,2.415728 0,3.110348 2.95028,1.16371 7.0996,1.826004 8.95686,-2.011204 1.57378,-2.683966 -0.60258,-4.814758 -2.73616,-6.056994 -1.8955,-1.233022 -3.53178,-1.968062 -2.61924,-3.671616 0.70638,-1.337554 3.01252,-0.458764 4.5369,0.09354 z"
     id="path2882"
     sodipodi:nodetypes="cccccccccccc" /><path
     style="opacity:1;fill:#c2bfc5;fill-rule:evenodd;stroke:#5aa9e6;stroke-width:2.11667;stroke-linecap:round;stroke-linejoin:round;stroke-opacity:1;fill-opacity:1"
     d="m 18.001438,62.937797 v 4.72399 c 0,0 3.36792,0.756858 3.338363,-2.408767 -0.02956,-3.165625 -3.338363,-2.315223 -3.338363,-2.315223 z"
     id="path2884"
     sodipodi:nodetypes="cczc" /></svg>
