<?xml version="1.0" encoding="UTF-8" standalone="no"?>
<!-- Created with Inkscape (http://www.inkscape.org/) -->

<svg
   width="512"
   height="512"
   viewBox="0 0 135.46667 135.46666"
   version="1.1"
   id="svg5"
   xml:space="preserve"
   inkscape:version="1.2.2 (b0a8486541, 2022-12-01)"
   sodipodi:docname="os_puppy_dark.svg"
   inkscape:export-filename="../../icons/256-96/os_ubuntu.png"
   inkscape:export-xdpi="48"
   inkscape:export-ydpi="48"
   xmlns:inkscape="http://www.inkscape.org/namespaces/inkscape"
   xmlns:sodipodi="http://sodipodi.sourceforge.net/DTD/sodipodi-0.dtd"
   xmlns="http://www.w3.org/2000/svg"
   xmlns:svg="http://www.w3.org/2000/svg"><sodipodi:namedview
     id="namedview7"
     pagecolor="#ffffff"
     bordercolor="#000000"
     borderopacity="0.25"
     inkscape:showpageshadow="2"
     inkscape:pageopacity="0.0"
     inkscape:pagecheckerboard="0"
     inkscape:deskcolor="#d1d1d1"
     inkscape:document-units="px"
     showgrid="false"
     showguides="true"
     inkscape:lockguides="false"
     inkscape:zoom="1"
     inkscape:cx="186"
     inkscape:cy="244"
     inkscape:window-width="1920"
     inkscape:window-height="1007"
     inkscape:window-x="1920"
     inkscape:window-y="0"
     inkscape:window-maximized="1"
     inkscape:current-layer="svg5"><sodipodi:guide
       position="2.6458333,135.46666"
       orientation="-1,0"
       id="guide20217"
       inkscape:locked="false"
       inkscape:label=""
       inkscape:color="rgb(0,134,229)" /><sodipodi:guide
       position="132.82083,135.46666"
       orientation="-1,0"
       id="guide20221"
       inkscape:locked="false"
       inkscape:label=""
       inkscape:color="rgb(0,134,229)" /><sodipodi:guide
       position="0,132.82083"
       orientation="0,1"
       id="guide20225"
       inkscape:locked="false"
       inkscape:label=""
       inkscape:color="rgb(0,134,229)" /><sodipodi:guide
       position="0,2.6458333"
       orientation="0,1"
       id="guide20227"
       inkscape:locked="false"
       inkscape:label=""
       inkscape:color="rgb(0,134,229)" /><sodipodi:guide
       position="67.733332,135.46666"
       orientation="-1,0"
       id="guide4570"
       inkscape:locked="false"
       inkscape:label=""
       inkscape:color="rgb(0,134,229)" /><sodipodi:guide
       position="0,67.733332"
       orientation="0,1"
       id="guide4572"
       inkscape:locked="false"
       inkscape:label=""
       inkscape:color="rgb(0,134,229)" /></sodipodi:namedview><defs
     id="defs2"><linearGradient
       id="linearGradient30939"
       inkscape:swatch="solid"><stop
         style="stop-color:#8cd2f2;stop-opacity:1;"
         offset="0"
         id="stop30937" /></linearGradient><inkscape:path-effect
       effect="spiro"
       id="path-effect4857"
       is_visible="true" /><inkscape:path-effect
       effect="spiro"
       id="path-effect4857-3"
       is_visible="true" /><inkscape:path-effect
       effect="spiro"
       id="path-effect4182"
       is_visible="true" /></defs><path
     style="display:inline;opacity:1;fill:#c2bfc5;fill-opacity:1;fill-rule:evenodd;stroke:#88868a;stroke-width:2.11667;stroke-linecap:round;stroke-linejoin:round;stroke-opacity:1"
     d="m 4.7122958,51.449385 c -2.4803467,10.331194 -2.6801818,22.126851 0,32.688114 2.535386,9.990694 7.8502072,19.518341 14.7449252,27.180261 6.644594,7.38396 15.385204,13.06621 24.555388,16.88475 7.440929,3.09847 15.700036,4.46371 23.76026,4.49013 7.654242,0.0251 15.398462,-1.49754 22.590958,-4.11595 6.627058,-2.41256 12.925553,-6.00804 18.381463,-10.47697 5.80471,-4.75463 10.82804,-10.59995 14.78,-16.97829 3.38692,-5.46637 5.77755,-11.595059 7.39,-17.820202 1.37717,-5.316809 1.96621,-10.878812 1.87089,-16.370258 -0.10424,-6.005268 -1.05035,-12.035409 -2.66601,-17.820195 -1.14107,-4.085525 -2.77112,-8.029955 -4.91108,-11.739814 2.27976,-3.475834 4.55774,-8.437078 4.34981,-13.002662 C 129.32171,19.160196 128.62296,13.464911 125.67681,9.1205726 122.89583,5.0198005 117.03861,3.5762268 112.11288,3.0401908 101.55957,1.8917406 90.475354,3.2765163 80.588444,4.2094951 73.940366,2.9478413 65.714278,2.566513 58.371665,3.5546847 51.832951,4.4346674 44.635096,7.0723912 39.241849,9.3544333 33.934957,8.2569119 26.463849,8.0135454 20.018487,9.6350663 14.338893,11.063936 9.0920574,15.342041 6.1271538,20.392665 3.5887992,24.716675 3.2404012,28.247087 3.8820899,35.266214 4.373843,40.645267 4.5738827,46.049675 4.7122958,51.449385 Z"
     id="path394"
     sodipodi:nodetypes="csssssssssscssscscsssc"
     inkscape:label="main_shape" /><path
     style="opacity:1;fill:none;fill-opacity:1;fill-rule:evenodd;stroke:#88868a;stroke-width:2.11667;stroke-linecap:round;stroke-linejoin:round;stroke-opacity:1"
     d="m 125.19623,37.357278 c 0,0 -2.59498,3.358026 -7.68116,3.474825 -2.17612,0.04997 -4.57443,-0.60737 -6.19731,-2.057977 -2.09336,-1.871153 -2.14857,-5.203597 -3.5313,-7.647249 -1.61103,-2.847115 -3.45481,-5.577231 -5.51912,-8.114971 -1.85423,-2.279477 -6.127151,-6.337629 -6.127151,-6.337629"
     id="path2552"
     sodipodi:nodetypes="cssssc"
     inkscape:label="right_ear" /><path
     style="opacity:1;fill:none;fill-opacity:1;fill-rule:evenodd;stroke:#88868a;stroke-width:2.11667;stroke-linecap:round;stroke-linejoin:round;stroke-opacity:1"
     d="m 38.281942,9.1853557 c 0,0 3.39109,1.4155083 4.28594,2.0526283 2.162385,1.539584 3.545491,3.295475 4.989998,4.998467 2.235773,2.635851 3.82109,5.476866 5.491078,8.435945 1.149113,2.036132 2.246436,4.184626 2.678906,6.482291 0.412,2.18891 0.729532,4.626872 -0.132292,6.680729 -0.853647,2.034368 -2.596438,3.874355 -4.630208,4.729427 -2.184965,0.91864 -4.777059,0.414968 -7.110677,0 -2.613209,-0.464686 -4.866894,-2.249781 -7.474479,-2.745052 -2.773415,-0.526768 -5.676107,-0.625158 -8.466667,-0.198437 -4.00446,0.612346 -11.509375,3.902604 -11.509375,3.902604"
     id="path2554"
     sodipodi:nodetypes="csssssssssc"
     inkscape:label="left_ear" /><circle
     style="opacity:1;fill:#4e4e50;fill-opacity:1;fill-rule:evenodd;stroke:#88868a;stroke-width:2.11667;stroke-linecap:round;stroke-linejoin:round;stroke-opacity:1"
     id="path2608"
     cx="104.17969"
     cy="53.578125"
     r="11.1125"
     inkscape:label="right_eye" /><circle
     style="opacity:1;fill:#4e4e50;fill-opacity:1;fill-rule:evenodd;stroke:#88868a;stroke-width:2.11667;stroke-linecap:round;stroke-linejoin:round;stroke-opacity:1"
     id="path2610"
     cx="38.727356"
     cy="71.080399"
     r="20.392664"
     inkscape:label="left_eye" /><circle
     style="opacity:1;fill:#fcf7ff;fill-opacity:1;fill-rule:evenodd;stroke:#88868a;stroke-width:2.11667;stroke-linecap:round;stroke-linejoin:round;stroke-opacity:1"
     id="path2612"
     cx="42.796352"
     cy="69.916145"
     r="10.517187"
     inkscape:label="left_pupil" /><path
     style="opacity:1;fill:#4e4e50;fill-opacity:1;fill-rule:evenodd;stroke:#88868a;stroke-width:2.11667;stroke-linecap:round;stroke-linejoin:round;stroke-opacity:1"
     d="m 66.486634,77.922429 c 8.883192,-2.380244 18.32663,-4.900249 26.309344,-7.039211 3.367118,-0.902216 4.037221,2.708504 3.157122,4.232881 -3.012592,5.217963 -8.964677,13.111212 -9.424591,15.107412 -0.200621,0.870769 -0.272903,1.964526 0.280633,2.666013 2.91404,3.692917 8.672339,5.508167 13.306678,4.700603 3.40035,-0.592533 6.31557,-3.547521 8.02143,-6.548104 1.12567,-1.980048 0.4161,-4.558527 1.0056,-6.758577 0.78856,-2.942931 3.51729,-3.023115 4.13934,-0.701583 0.80027,2.986636 0.0178,6.458394 -1.49573,9.154594 -2.21961,3.953884 -5.91537,7.781833 -10.31875,8.863543 -9.193738,2.25849 -15.523853,-3.600618 -15.523853,-3.600618 0,0 -1.774361,6.584778 -8.769781,9.763688 -4.031469,1.83201 -9.178188,1.84754 -13.283295,0.18709 -3.955128,-1.59978 -7.855128,-4.47888 -9.073801,-9.027028 -0.726154,-2.710043 2.384896,-4.089922 3.882089,-1.496708 2.188747,3.791016 3.773375,5.504996 6.68842,6.735196 2.930398,1.23668 6.693846,1.51031 9.541523,0.0935 3.82191,-1.90152 7.168748,-6.045394 7.623863,-10.289877 0.09595,-0.894835 -0.660837,-1.6814 -1.110819,-2.460792 -0.988275,-1.711742 -10.147371,-5.179507 -15.941145,-8.524544 -1.48744,-0.858774 -2.272429,-4.184459 0.985723,-5.057478 z"
     id="path2668"
     sodipodi:nodetypes="ssssssssssscssssssssss"
     inkscape:label="mouth" /></svg>
