<?xml version="1.0" encoding="UTF-8" standalone="no"?>
<!-- Created with Inkscape (http://www.inkscape.org/) -->

<svg
   width="512"
   height="512"
   viewBox="0 0 135.46667 135.46666"
   version="1.1"
   id="svg5"
   xml:space="preserve"
   inkscape:version="1.2.2 (b0a8486541, 2022-12-01)"
   sodipodi:docname="os_pop_dark.svg"
   inkscape:export-filename="../../icons/256-96/os_ubuntu.png"
   inkscape:export-xdpi="48"
   inkscape:export-ydpi="48"
   xmlns:inkscape="http://www.inkscape.org/namespaces/inkscape"
   xmlns:sodipodi="http://sodipodi.sourceforge.net/DTD/sodipodi-0.dtd"
   xmlns="http://www.w3.org/2000/svg"
   xmlns:svg="http://www.w3.org/2000/svg"><sodipodi:namedview
     id="namedview7"
     pagecolor="#ffffff"
     bordercolor="#000000"
     borderopacity="0.25"
     inkscape:showpageshadow="2"
     inkscape:pageopacity="0.0"
     inkscape:pagecheckerboard="0"
     inkscape:deskcolor="#d1d1d1"
     inkscape:document-units="px"
     showgrid="false"
     showguides="true"
     inkscape:lockguides="false"
     inkscape:zoom="1"
     inkscape:cx="74"
     inkscape:cy="257"
     inkscape:window-width="1920"
     inkscape:window-height="1007"
     inkscape:window-x="1920"
     inkscape:window-y="0"
     inkscape:window-maximized="1"
     inkscape:current-layer="svg5"><sodipodi:guide
       position="2.6458333,135.46666"
       orientation="-1,0"
       id="guide20217"
       inkscape:locked="false"
       inkscape:label=""
       inkscape:color="rgb(0,134,229)" /><sodipodi:guide
       position="132.82083,135.46666"
       orientation="-1,0"
       id="guide20221"
       inkscape:locked="false"
       inkscape:label=""
       inkscape:color="rgb(0,134,229)" /><sodipodi:guide
       position="0,132.82083"
       orientation="0,1"
       id="guide20225"
       inkscape:locked="false"
       inkscape:label=""
       inkscape:color="rgb(0,134,229)" /><sodipodi:guide
       position="0,2.6458333"
       orientation="0,1"
       id="guide20227"
       inkscape:locked="false"
       inkscape:label=""
       inkscape:color="rgb(0,134,229)" /><sodipodi:guide
       position="67.733332,135.46666"
       orientation="-1,0"
       id="guide4570"
       inkscape:locked="false"
       inkscape:label=""
       inkscape:color="rgb(0,134,229)" /><sodipodi:guide
       position="0,67.733332"
       orientation="0,1"
       id="guide4572"
       inkscape:locked="false"
       inkscape:label=""
       inkscape:color="rgb(0,134,229)" /></sodipodi:namedview><defs
     id="defs2"><linearGradient
       id="linearGradient30939"
       inkscape:swatch="solid"><stop
         style="stop-color:#8cd2f2;stop-opacity:1;"
         offset="0"
         id="stop30937" /></linearGradient><inkscape:path-effect
       effect="spiro"
       id="path-effect4857"
       is_visible="true" /><inkscape:path-effect
       effect="spiro"
       id="path-effect4857-3"
       is_visible="true" /><inkscape:path-effect
       effect="spiro"
       id="path-effect4182"
       is_visible="true" /></defs><circle
     style="display:inline;opacity:1;fill:#54664c;fill-opacity:1;fill-rule:evenodd;stroke:#adbda6;stroke-width:2.11667;stroke-linecap:round;stroke-linejoin:round;stroke-opacity:1"
     id="path8457"
     cx="67.733337"
     cy="67.733337"
     r="65.087502"
     inkscape:label="main_circle" /><path
     style="opacity:1;fill:#fcf7ff;fill-opacity:1;fill-rule:evenodd;stroke:#adbda6;stroke-width:2.11667;stroke-linecap:round;stroke-linejoin:round;stroke-opacity:1"
     d="M 66.229388,95.929713 C 63.496723,97.370791 59.284457,95.009029 57.670083,92.375028 47.948224,76.512915 37.850547,59.082552 29.419693,40.224064 c -1.558727,-3.486625 -0.344734,-8.843162 2.712786,-11.131777 6.005888,-4.495527 10.917917,-8.606964 17.492789,-9.868926 5.484952,-1.052766 11.758205,-0.531647 16.60412,2.245063 4.759982,2.72747 8.164333,7.841657 10.149559,12.955891 1.70876,4.402015 2.052782,9.505342 1.075762,14.125194 -0.790899,3.739778 -2.880626,7.250647 -5.425572,10.102789 -3.259473,3.652919 -9.96855,7.699297 -12.06722,8.372216 0.807659,1.925969 5.557267,13.700577 7.904498,21.094247 0.804937,2.535515 0.716042,6.570055 -1.637027,7.810952 z"
     id="path2424"
     sodipodi:nodetypes="ssssssssscss"
     inkscape:label="p" /><path
     style="opacity:1;fill:#54664c;fill-opacity:1;fill-rule:evenodd;stroke:#adbda6;stroke-width:2.11667;stroke-linecap:round;stroke-linejoin:round;stroke-opacity:1"
     d="m 48.689826,31.150263 c -2.596181,1.30253 -1.443694,5.778002 -1.028989,8.652851 0.542478,3.760608 2.200741,7.444615 4.49013,10.476966 1.549316,2.052106 3.489878,5.478079 5.986836,4.864304 2.604261,-0.640152 3.150203,-4.708387 3.180508,-7.390001 0.0494,-4.371383 -2.041295,-8.86292 -4.911079,-12.160763 -1.948601,-2.239255 -5.064219,-5.774488 -7.717406,-4.443357 z"
     id="path2426"
     sodipodi:nodetypes="sssssss"
     inkscape:label="inner_p" /><path
     style="opacity:1;fill:#fcf7ff;fill-opacity:1;fill-rule:evenodd;stroke:#adbda6;stroke-width:2.11667;stroke-linecap:round;stroke-linejoin:round;stroke-opacity:1"
     d="m 86.41953,81.491666 c -1.948292,-0.522043 -2.05407,-7.919462 -1.653646,-11.90625 0.513254,-5.110174 1.146985,-10.182663 1.620573,-15.246615 0.363903,-3.891117 1.453026,-9.884065 3.638021,-11.145572 4.370185,-2.523128 12.032082,-0.844935 14.750522,3.40651 1.88689,2.950959 -0.70056,7.096889 -2.14974,10.285677 -2.32983,5.126564 -5.091382,9.791977 -7.70599,14.651302 -2.050439,3.8108 -5.589822,10.734658 -8.49974,9.954948 z"
     id="path2428"
     sodipodi:nodetypes="ssssssss"
     inkscape:label="!" /><path
     style="opacity:1;fill:#fcf7ff;fill-opacity:1;fill-rule:evenodd;stroke:#adbda6;stroke-width:2.11667;stroke-linecap:round;stroke-linejoin:round;stroke-opacity:1"
     d="m 83.211457,97.168228 c -1.532811,-0.285377 -2.93566,-1.768509 -3.340364,-3.274219 -0.43946,-1.635018 0.252044,-3.611158 1.355989,-4.894791 0.968536,-1.126184 2.603214,-2.065679 4.067969,-1.819011 1.476648,0.24867 2.723113,1.683442 3.274219,3.075781 0.581342,1.468728 0.611377,3.437615 -0.297657,4.729427 -1.057144,1.50229 -3.254227,2.519039 -5.060156,2.182813 z"
     id="path2430"
     sodipodi:nodetypes="sssssss"
     inkscape:label="dot" /><path
     style="opacity:1;fill:#fcf7ff;fill-opacity:1;fill-rule:evenodd;stroke:#adbda6;stroke-width:2.11667;stroke-linecap:round;stroke-linejoin:round;stroke-opacity:1"
     d="m 40.613541,111.125 c 17.920231,0 37.959291,0 56.753124,0 2.465112,0 4.975475,-2.95939 5.027085,-5.42396 0.0491,-2.34557 -2.21799,-5.35781 -4.564064,-5.35781 -18.871779,0 -37.856424,0 -57.546874,0 -2.447794,0 -5.159842,2.77773 -5.159375,5.22552 4.96e-4,2.6037 2.886406,5.55625 5.490104,5.55625 z"
     id="path2432"
     sodipodi:nodetypes="sssssss"
     inkscape:label="underline" /></svg>
