<?xml version="1.0" encoding="UTF-8" standalone="no"?>
<!-- Created with Inkscape (http://www.inkscape.org/) -->

<svg
   width="512"
   height="512"
   viewBox="0 0 135.46667 135.46666"
   version="1.1"
   id="svg5"
   xml:space="preserve"
   inkscape:version="1.2.2 (b0a8486541, 2022-12-01)"
   sodipodi:docname="os_remixos_dark.svg"
   inkscape:export-filename="../../icons/256-96/os_ubuntu.png"
   inkscape:export-xdpi="48"
   inkscape:export-ydpi="48"
   xmlns:inkscape="http://www.inkscape.org/namespaces/inkscape"
   xmlns:sodipodi="http://sodipodi.sourceforge.net/DTD/sodipodi-0.dtd"
   xmlns="http://www.w3.org/2000/svg"
   xmlns:svg="http://www.w3.org/2000/svg"><sodipodi:namedview
     id="namedview7"
     pagecolor="#ffffff"
     bordercolor="#000000"
     borderopacity="0.25"
     inkscape:showpageshadow="2"
     inkscape:pageopacity="0.0"
     inkscape:pagecheckerboard="0"
     inkscape:deskcolor="#d1d1d1"
     inkscape:document-units="px"
     showgrid="false"
     showguides="true"
     inkscape:lockguides="false"
     inkscape:zoom="1"
     inkscape:cx="172"
     inkscape:cy="264"
     inkscape:window-width="1920"
     inkscape:window-height="1007"
     inkscape:window-x="1920"
     inkscape:window-y="0"
     inkscape:window-maximized="1"
     inkscape:current-layer="svg5"><sodipodi:guide
       position="2.6458333,135.46666"
       orientation="-1,0"
       id="guide20217"
       inkscape:locked="false"
       inkscape:label=""
       inkscape:color="rgb(0,134,229)" /><sodipodi:guide
       position="132.82083,135.46666"
       orientation="-1,0"
       id="guide20221"
       inkscape:locked="false"
       inkscape:label=""
       inkscape:color="rgb(0,134,229)" /><sodipodi:guide
       position="0,132.82083"
       orientation="0,1"
       id="guide20225"
       inkscape:locked="false"
       inkscape:label=""
       inkscape:color="rgb(0,134,229)" /><sodipodi:guide
       position="0,2.6458333"
       orientation="0,1"
       id="guide20227"
       inkscape:locked="false"
       inkscape:label=""
       inkscape:color="rgb(0,134,229)" /><sodipodi:guide
       position="67.733332,135.46666"
       orientation="-1,0"
       id="guide4570"
       inkscape:locked="false"
       inkscape:label=""
       inkscape:color="rgb(0,134,229)" /><sodipodi:guide
       position="0,67.733332"
       orientation="0,1"
       id="guide4572"
       inkscape:locked="false"
       inkscape:label=""
       inkscape:color="rgb(0,134,229)" /></sodipodi:namedview><defs
     id="defs2"><linearGradient
       id="linearGradient30939"
       inkscape:swatch="solid"><stop
         style="stop-color:#8cd2f2;stop-opacity:1;"
         offset="0"
         id="stop30937" /></linearGradient><inkscape:path-effect
       effect="spiro"
       id="path-effect4857"
       is_visible="true" /><inkscape:path-effect
       effect="spiro"
       id="path-effect4857-3"
       is_visible="true" /><inkscape:path-effect
       effect="spiro"
       id="path-effect4182"
       is_visible="true" /></defs><circle
     style="display:inline;opacity:1;fill:#15598e;fill-opacity:1;fill-rule:evenodd;stroke:#5aa9e6;stroke-width:2.11667;stroke-linecap:round;stroke-linejoin:round;stroke-opacity:1"
     id="path8457"
     cx="67.733337"
     cy="67.733337"
     r="65.087502"
     inkscape:label="main_circle" /><path
     style="fill:none;fill-rule:evenodd;stroke:#fcf7ff;stroke-width:2.11667;stroke-linecap:round;stroke-linejoin:round;stroke-opacity:1"
     d="m 21.141019,76.378947 c 0,0 -3.0483,-1.069702 -3.695001,-2.38538 -0.821303,-1.670895 -0.32019,-3.878989 0.467722,-5.565886 0.993739,-2.127567 3.119769,-3.557355 5.004622,-4.95785 1.993516,-1.481235 4.227292,-2.670381 6.548104,-3.554685 2.484294,-0.946596 5.120362,-1.544837 7.764179,-1.824114 2.295131,-0.242444 4.756684,-0.657554 6.92228,0.140317 1.247537,0.45963 2.743347,1.241353 3.086963,2.525696 0.409362,1.530083 -0.636483,3.255137 -1.683798,4.443355 -1.318948,1.496396 -3.459901,2.002027 -5.285256,2.806332 -1.78698,0.787396 -3.633388,1.457157 -5.519115,1.96443 -1.071904,0.288349 -3.066123,-0.482329 -3.27405,0.608037 -0.649616,3.406576 -5.098167,11.693043 -5.098167,11.693043 l 8.278673,-18.381461 c 0,0 -3.162774,3.893092 -2.993419,6.173925 0.13705,1.845755 1.642361,3.115245 2.571496,4.715965 0.913611,1.573974 1.838894,3.335592 2.94762,4.778785 0.740736,0.964192 1.559205,2.191712 2.759559,2.38538 1.849372,0.298382 2.516437,-1.135538 3.471918,-2.746832 0.81582,-1.375774 0.577225,-1.772225 1.932903,-2.621021 1.876628,-1.174966 3.434998,-1.841485 5.12459,-2.707682 1.594215,-0.817302 3.086624,-1.439979 4.31909,-2.740184 0.743866,-0.784751 1.94683,-1.599898 1.708846,-2.654665 -0.221001,-0.979498 -1.452002,-1.559258 -2.432153,-1.777342 -1.426655,-0.317431 -3.003834,0.172447 -4.303041,0.841899 -1.450903,0.747618 -2.647399,2.010802 -3.554682,3.367596 -0.798296,1.193809 -1.64747,2.500181 -1.84114,3.923188 -0.219668,1.614033 -0.189309,3.760317 0.831525,5.029669 0.636519,0.791477 1.8186,0.90255 2.833729,0.869299 1.944489,-0.06369 3.777213,-1.118072 5.42557,-2.15152 1.523883,-0.955409 2.922414,-2.190232 3.975634,-3.648229 1.802028,-2.494589 3.788545,-8.418991 3.788545,-8.418991 3.765819,1.470605 -7.295961,10.72912 -3.570732,12.299704 0,0 2.575174,-8.16066 5.067443,-11.130399 0.843906,-1.005582 1.822211,-2.442591 3.133736,-2.38538 0.694657,0.0303 1.800076,0.756924 1.543481,1.403164 L 63.411711,77.693839 67.398693,66.69711 c 0.540107,-1.489699 2.765393,-1.894411 4.349811,-1.91766 0.538443,-0.0079 1.501041,0.06956 1.49671,0.608039 -0.02344,2.914656 -2.531335,5.919156 -3.461141,9.120574 -0.25093,0.863979 -0.307754,2.138361 0.420949,2.666013 0.473333,0.342739 1.297147,0.111378 1.730571,-0.280633 1.35141,-1.222283 2.686062,-2.704167 3.695002,-4.303041 1.337298,-2.119225 3.040189,-6.875507 3.040189,-6.875507 0,0 -3.034927,5.4802 -3.320822,8.512535 -0.06401,0.678893 -0.145025,1.569134 0.374176,2.011201 0.498713,0.424623 1.351787,0.278474 1.964431,0.04677 3.21956,-1.217647 7.577092,-7.015824 7.577092,-7.015824 0,0 -6.049731,7.494257 -4.49013,5.659432 l 9.541523,-11.225321 -5.098166,5.893292 -1.356392,-4.256267 4.536898,9.588296"
     id="path868"
     sodipodi:nodetypes="csssssssssssccsssssssssssssssssssssssssssssscssscscccc"
     inkscape:label="remix" /><path
     style="fill:none;fill-rule:evenodd;stroke:#fcf7ff;stroke-width:2.11667;stroke-linecap:round;stroke-linejoin:round;stroke-opacity:1"
     d="m 109.30655,59.540967 c 0.16706,-0.937413 0.50651,-2.154335 -0.14031,-2.853102 -0.67258,-0.726595 -1.97905,-0.584071 -2.94665,-0.374177 -1.59408,0.345791 -3.02233,1.406216 -4.16272,2.57247 -1.80773,1.848722 -2.82603,4.349742 -3.928863,6.688421 -0.814123,1.726438 -1.678992,3.491497 -1.964431,5.378799 -0.140062,0.92608 -0.463812,2.090599 0.140316,2.806329 0.556284,0.659048 1.674182,0.698079 2.525697,0.561266 1.684281,-0.270613 3.179701,-1.423729 4.396581,-2.619242 1.30856,-1.285589 2.05534,-3.048776 2.89988,-4.677217 1.24786,-2.406117 2.70494,-4.815138 3.1805,-7.483547 z"
     id="path1802"
     sodipodi:nodetypes="sssssssssss"
     inkscape:label="o" /><path
     style="fill:none;fill-rule:evenodd;stroke:#fcf7ff;stroke-width:2.11667;stroke-linecap:round;stroke-linejoin:round;stroke-opacity:1"
     d="m 119.97061,57.482993 c 0,0 -2.63674,-1.01386 -3.88209,-0.608039 -1.153,0.375726 -3.09669,1.576176 -3.39901,2.75056 -0.33582,1.304511 0.22414,3.674188 1.43458,4.265267 1.57273,0.767999 2.96212,1.775299 3.34421,3.227279 0.32831,1.247601 -0.4342,3.119632 -1.20583,4.020055 -0.69499,0.810997 -2.3587,2.616544 -4.58424,2.802602 -2.98225,0.249321 -4.24256,-2.426073 -4.24256,-2.426073"
     id="path1804"
     sodipodi:nodetypes="cssssssc"
     inkscape:label="s" /><path
     style="fill:none;fill-rule:evenodd;stroke:#fcf7ff;stroke-width:2.11667;stroke-linecap:round;stroke-linejoin:round;stroke-opacity:1"
     d="m 80.230032,60.326693 c -0.805148,-0.0926 -0.775588,0.187517 -0.894062,0.989266 -0.104596,0.707833 0.08453,0.879116 0.78779,1.010992 0.832886,0.156184 0.975252,-0.08162 1.104537,-0.919107 0.117765,-0.762862 -0.231421,-0.992959 -0.998265,-1.081151 z"
     id="path1806"
     sodipodi:nodetypes="sssss"
     inkscape:label="i" /><path
     style="fill:none;fill-rule:evenodd;stroke:#fcf7ff;stroke-width:2.11667;stroke-linecap:round;stroke-linejoin:round;stroke-opacity:1"
     d="m 43.722395,89.098436 c 0,0 47.360416,-9.789583 57.811455,-9.19427 -23.746355,2.645833 -55.297913,10.31875 -55.297913,10.31875 z"
     id="path1808"
     sodipodi:nodetypes="ccc"
     inkscape:label="underline" /></svg>
