<?xml version="1.0" encoding="UTF-8" standalone="no"?>
<!-- Created with Inkscape (http://www.inkscape.org/) -->

<svg
   width="512"
   height="512"
   viewBox="0 0 135.46667 135.46666"
   version="1.1"
   id="svg5"
   xml:space="preserve"
   inkscape:version="1.2.2 (b0a8486541, 2022-12-01)"
   sodipodi:docname="os_refind_dark.svg"
   inkscape:export-filename="../../icons/256-96/os_ubuntu.png"
   inkscape:export-xdpi="48"
   inkscape:export-ydpi="48"
   xmlns:inkscape="http://www.inkscape.org/namespaces/inkscape"
   xmlns:sodipodi="http://sodipodi.sourceforge.net/DTD/sodipodi-0.dtd"
   xmlns="http://www.w3.org/2000/svg"
   xmlns:svg="http://www.w3.org/2000/svg"><sodipodi:namedview
     id="namedview7"
     pagecolor="#ffffff"
     bordercolor="#000000"
     borderopacity="0.25"
     inkscape:showpageshadow="2"
     inkscape:pageopacity="0.0"
     inkscape:pagecheckerboard="0"
     inkscape:deskcolor="#d1d1d1"
     inkscape:document-units="px"
     showgrid="false"
     showguides="true"
     inkscape:lockguides="false"
     inkscape:zoom="1"
     inkscape:cx="170"
     inkscape:cy="302"
     inkscape:window-width="1920"
     inkscape:window-height="1007"
     inkscape:window-x="1920"
     inkscape:window-y="0"
     inkscape:window-maximized="1"
     inkscape:current-layer="svg5"><sodipodi:guide
       position="2.6458333,135.46666"
       orientation="-1,0"
       id="guide20217"
       inkscape:locked="false"
       inkscape:label=""
       inkscape:color="rgb(0,134,229)" /><sodipodi:guide
       position="132.82083,135.46666"
       orientation="-1,0"
       id="guide20221"
       inkscape:locked="false"
       inkscape:label=""
       inkscape:color="rgb(0,134,229)" /><sodipodi:guide
       position="0,132.82083"
       orientation="0,1"
       id="guide20225"
       inkscape:locked="false"
       inkscape:label=""
       inkscape:color="rgb(0,134,229)" /><sodipodi:guide
       position="0,2.6458333"
       orientation="0,1"
       id="guide20227"
       inkscape:locked="false"
       inkscape:label=""
       inkscape:color="rgb(0,134,229)" /><sodipodi:guide
       position="67.733332,135.46666"
       orientation="-1,0"
       id="guide4570"
       inkscape:locked="false"
       inkscape:label=""
       inkscape:color="rgb(0,134,229)" /><sodipodi:guide
       position="0,67.733332"
       orientation="0,1"
       id="guide4572"
       inkscape:locked="false"
       inkscape:label=""
       inkscape:color="rgb(0,134,229)" /></sodipodi:namedview><defs
     id="defs2"><linearGradient
       id="linearGradient30939"
       inkscape:swatch="solid"><stop
         style="stop-color:#8cd2f2;stop-opacity:1;"
         offset="0"
         id="stop30937" /></linearGradient><inkscape:path-effect
       effect="spiro"
       id="path-effect4857"
       is_visible="true" /><inkscape:path-effect
       effect="spiro"
       id="path-effect4857-3"
       is_visible="true" /><inkscape:path-effect
       effect="spiro"
       id="path-effect4182"
       is_visible="true" /></defs><path
     style="display:inline;opacity:1;fill:#15598e;fill-opacity:1;fill-rule:evenodd;stroke:#5aa9e6;stroke-width:2.11667;stroke-linecap:round;stroke-linejoin:round;stroke-opacity:1"
     d="m 95.672015,90.176738 c 0,0 8.778585,-8.176152 11.716425,-13.470385 1.35885,-2.448766 1.85494,-6.131921 -1.75513,-8.216195 -3.42794,-1.979123 -6.672733,0.08737 -8.254113,2.486606 C 88.931612,83.79327 78.161567,88.533949 66.112006,89.241293 55.448046,89.867298 43.880654,84.369896 36.739086,76.42572 30.007611,68.937726 26.410973,57.604537 27.665286,47.614067 28.999751,36.985198 35.746201,26.33405 44.596809,20.29912 c 8.014215,-5.464621 19.031932,-6.677609 28.624567,-5.238482 6.358124,0.953873 12.417979,4.500408 17.118613,8.886711 9.348178,8.723066 11.045041,18.096596 11.045041,18.096596 -0.83385,2.085083 -8.066378,0.12857 -6.507101,1.744596 6.306821,6.536351 17.690531,17.702241 17.690531,17.702241 0,0 4.59015,-16.018087 6.46924,-24.167996 0.50301,-2.181649 -4.41738,2.573363 -6.49056,1.72806 0,0 -3.3471,-13.13417 -13.647843,-22.961221 C 92.586125,10.066769 84.401258,5.218016 75.793845,3.7885454 63.828981,1.8014883 49.971882,2.8715024 39.872819,9.5882943 25.544657,19.11782 18.506184,29.561854 16.159332,47.660837 c -1.571409,12.118747 2.744752,25.846718 10.804371,35.032354 11.636045,13.261728 20.897745,17.072658 39.616025,18.147599 5.627486,0.32317 16.563192,-3.408521 16.563192,-3.408521 5.306652,9.191391 12.821377,22.207271 18.36023,31.800841 2.106,3.64769 7.10381,4.24866 10.06071,2.46576 2.84611,-1.7161 4.57431,-5.94212 2.42086,-9.672 -6.24245,-10.81225 -11.9346,-20.80293 -18.312705,-31.850132 z"
     id="path418"
     sodipodi:nodetypes="sssssssssssscsssssssssssss"
     inkscape:label="shape" /></svg>
