<?xml version="1.0" encoding="UTF-8" standalone="no"?>
<!-- Created with Inkscape (http://www.inkscape.org/) -->

<svg
   width="512"
   height="512"
   viewBox="0 0 135.46667 135.46666"
   version="1.1"
   id="svg5"
   xml:space="preserve"
   inkscape:version="1.2.2 (b0a8486541, 2022-12-01)"
   sodipodi:docname="os_redhat.svg"
   inkscape:export-filename="../../icons/256-96/os_arch.png"
   inkscape:export-xdpi="48"
   inkscape:export-ydpi="48"
   xmlns:inkscape="http://www.inkscape.org/namespaces/inkscape"
   xmlns:sodipodi="http://sodipodi.sourceforge.net/DTD/sodipodi-0.dtd"
   xmlns="http://www.w3.org/2000/svg"
   xmlns:svg="http://www.w3.org/2000/svg"><sodipodi:namedview
     id="namedview7"
     pagecolor="#ffffff"
     bordercolor="#000000"
     borderopacity="0.25"
     inkscape:showpageshadow="2"
     inkscape:pageopacity="0.0"
     inkscape:pagecheckerboard="0"
     inkscape:deskcolor="#d1d1d1"
     inkscape:document-units="px"
     showgrid="false"
     showguides="true"
     inkscape:lockguides="false"
     inkscape:zoom="1.28"
     inkscape:cx="263.28125"
     inkscape:cy="219.53125"
     inkscape:window-width="1920"
     inkscape:window-height="1007"
     inkscape:window-x="1920"
     inkscape:window-y="0"
     inkscape:window-maximized="1"
     inkscape:current-layer="svg5"><sodipodi:guide
       position="2.6458333,135.46666"
       orientation="-1,0"
       id="guide20217"
       inkscape:locked="false"
       inkscape:label=""
       inkscape:color="rgb(0,134,229)" /><sodipodi:guide
       position="132.82083,135.46666"
       orientation="-1,0"
       id="guide20221"
       inkscape:locked="false"
       inkscape:label=""
       inkscape:color="rgb(0,134,229)" /><sodipodi:guide
       position="0,132.82083"
       orientation="0,1"
       id="guide20225"
       inkscape:locked="false"
       inkscape:label=""
       inkscape:color="rgb(0,134,229)" /><sodipodi:guide
       position="0,2.6458333"
       orientation="0,1"
       id="guide20227"
       inkscape:locked="false"
       inkscape:label=""
       inkscape:color="rgb(0,134,229)" /></sodipodi:namedview><defs
     id="defs2"><linearGradient
       id="linearGradient30939"
       inkscape:swatch="solid"><stop
         style="stop-color:#8cd2f2;stop-opacity:1;"
         offset="0"
         id="stop30937" /></linearGradient></defs><path
     style="opacity:1;fill:#f9acac;fill-opacity:1;fill-rule:evenodd;stroke:#f25757;stroke-width:2.11667;stroke-linecap:round;stroke-linejoin:round;stroke-opacity:1"
     d="M 2.6583399,68.577861 C 2.529518,55.782867 21.67243,53.235784 29.042156,53.226726 c 2.802132,-6.586394 5.399568,-15.43765 10.025226,-27.285157 4.625658,-11.847507 14.611948,-1.036396 20.463867,-2.17041 5.851919,-1.134014 4.104333,-8.433185 16.584279,-3.427932 12.479946,5.005253 15.488812,5.871191 20.984043,8.852436 5.495229,2.981246 6.935549,5.167383 8.320349,11.628719 1.3848,6.461336 4.3363,18.886194 6.09782,26.613361 8.33885,3.415358 17.29829,9.969716 19.58537,17.518311 2.28708,7.548595 2.34951,9.887386 -0.6718,16.691486 -3.02131,6.8041 -13.23489,14.98692 -39.48079,15.19287 C 64.704621,117.04636 37.896184,103.26283 28.794115,98.660038 19.692046,94.057246 2.7871618,81.372855 2.6583399,68.577861 Z"
     id="path371"
     sodipodi:nodetypes="zczzzzzczzzzz"
     inkscape:label="hat" /><path
     style="opacity:1;fill:#4e4e50;fill-opacity:1;fill-rule:evenodd;stroke:#f25757;stroke-width:2.11667;stroke-linecap:round;stroke-linejoin:round;stroke-opacity:1"
     d="m 28.136381,59.196025 c 6.085094,19.760578 38.693758,34.523799 71.292718,27.305885 7.751251,-2.102209 12.347001,-7.048802 13.408751,-12.324177 -1.51902,-4.051797 -2.22899,-9.71984 -2.22899,-9.71984 -1.44944,4.832975 -5.34146,7.007231 -8.48677,8.713356 -7.055155,3.423542 -13.137021,2.255379 -19.539984,1.7373 C 62.43982,73.148084 48.298784,66.312508 40.039801,59.627167 35.507976,56.120872 32.035279,53.262805 31.132724,48.453042 c 0,0 -3.720017,8.145043 -2.996343,10.742983 z"
     id="path2540"
     sodipodi:nodetypes="ccccccccc"
     inkscape:label="stripe" /></svg>
