<?xml version="1.0" encoding="UTF-8" standalone="no"?>
<!-- Created with Inkscape (http://www.inkscape.org/) -->

<svg
   width="512"
   height="512"
   viewBox="0 0 135.46667 135.46666"
   version="1.1"
   id="svg5"
   xml:space="preserve"
   inkscape:version="1.2.2 (b0a8486541, 2022-12-01)"
   sodipodi:docname="os_goofiboot.svg"
   inkscape:export-filename="../../icons/256-96/os_arch.png"
   inkscape:export-xdpi="48"
   inkscape:export-ydpi="48"
   xmlns:inkscape="http://www.inkscape.org/namespaces/inkscape"
   xmlns:sodipodi="http://sodipodi.sourceforge.net/DTD/sodipodi-0.dtd"
   xmlns="http://www.w3.org/2000/svg"
   xmlns:svg="http://www.w3.org/2000/svg"><sodipodi:namedview
     id="namedview7"
     pagecolor="#ffffff"
     bordercolor="#000000"
     borderopacity="0.25"
     inkscape:showpageshadow="2"
     inkscape:pageopacity="0.0"
     inkscape:pagecheckerboard="0"
     inkscape:deskcolor="#d1d1d1"
     inkscape:document-units="px"
     showgrid="false"
     showguides="true"
     inkscape:lockguides="false"
     inkscape:zoom="1.28"
     inkscape:cx="217.96875"
     inkscape:cy="253.90625"
     inkscape:window-width="1920"
     inkscape:window-height="1007"
     inkscape:window-x="1920"
     inkscape:window-y="0"
     inkscape:window-maximized="1"
     inkscape:current-layer="svg5"><sodipodi:guide
       position="2.6458333,135.46666"
       orientation="-1,0"
       id="guide20217"
       inkscape:locked="false"
       inkscape:label=""
       inkscape:color="rgb(0,134,229)" /><sodipodi:guide
       position="132.82083,135.46666"
       orientation="-1,0"
       id="guide20221"
       inkscape:locked="false"
       inkscape:label=""
       inkscape:color="rgb(0,134,229)" /><sodipodi:guide
       position="0,132.82083"
       orientation="0,1"
       id="guide20225"
       inkscape:locked="false"
       inkscape:label=""
       inkscape:color="rgb(0,134,229)" /><sodipodi:guide
       position="0,2.6458333"
       orientation="0,1"
       id="guide20227"
       inkscape:locked="false"
       inkscape:label=""
       inkscape:color="rgb(0,134,229)" /></sodipodi:namedview><defs
     id="defs2"><linearGradient
       id="linearGradient30939"
       inkscape:swatch="solid"><stop
         style="stop-color:#8cd2f2;stop-opacity:1;"
         offset="0"
         id="stop30937" /></linearGradient></defs><path
     style="display:inline;opacity:1;fill:#fcf7ff;fill-opacity:1;fill-rule:evenodd;stroke:#88868a;stroke-width:2.11667;stroke-linecap:round;stroke-linejoin:round;stroke-opacity:1"
     d="M 16.827235,109.48934 13.410406,104.92687 128.86822,69.756601 124.80845,91.989803 82.165528,126.19385 Z"
     id="path4777"
     sodipodi:nodetypes="cccccc"
     inkscape:label="center_shape" /><path
     style="display:inline;opacity:1;fill:#add4f3;fill-opacity:1;fill-rule:evenodd;stroke:#5aa9e6;stroke-width:2.11667;stroke-linecap:round;stroke-linejoin:round;stroke-opacity:1"
     d="M 16.827235,109.48934 C 63.91385,113.59178 98.83879,110.79197 124.80845,91.989803 116.68923,114.08355 96.909538,128.47933 76.235657,131.89108 55.354155,135.3371 32.801882,129.20404 16.827235,109.48934 Z"
     id="path3269"
     sodipodi:nodetypes="cccc"
     inkscape:label="bottom_shape" /><path
     style="display:inline;opacity:1;fill:#c2bfc5;fill-opacity:1;fill-rule:evenodd;stroke:#88868a;stroke-width:2.11667;stroke-linecap:round;stroke-linejoin:round;stroke-opacity:1"
     d="M 13.410406,104.92687 C 11.609161,102.06414 9.3822273,98.090245 8.0572366,95.298291 6.0260856,94.802093 4.9658919,94.388519 2.6309344,93.343358 3.7196987,91.319276 4.5251177,89.924568 5.3897614,88.172842 -5.378694,52.287297 17.051929,22.235868 39.993858,12.09499 41.200679,9.0018507 42.266022,5.4879552 43.09982,2.6309344 c 1.952145,1.9070218 3.535795,4.0160342 5.225328,6.3763619 47.931303,-11.9304762 81.212222,25.8112367 80.543072,60.7493047 1.50239,1.362474 2.71056,2.590458 3.93915,3.854752 C 117.44543,111.19149 51.764735,108.04304 13.410406,104.92687 Z"
     id="path383"
     sodipodi:nodetypes="cccccccccc"
     inkscape:label="top_shape" /><path
     style="display:inline;opacity:1;fill:#fcf7ff;fill-opacity:1;fill-rule:evenodd;stroke:#88868a;stroke-width:2.11667;stroke-linecap:round;stroke-linejoin:round;stroke-opacity:1"
     d="m 112.13786,90.227051 c 0.9054,-14.997189 -7.4932,-23.062501 -23.667809,-33.279622 17.385009,5.002176 29.133829,9.058712 39.377439,17.621663 -2.38625,4.998233 -9.06601,12.354018 -15.70963,15.657959 z"
     id="path5589"
     sodipodi:nodetypes="cccc"
     inkscape:label="right_sail" /><path
     style="display:inline;opacity:1;fill:#fcf7ff;fill-opacity:1;fill-rule:evenodd;stroke:#88868a;stroke-width:2.11667;stroke-linecap:round;stroke-linejoin:round;stroke-opacity:1"
     d="M 73.638914,98.262735 C 79.972306,77.590993 77.666763,65.436375 69.711506,45.010173 83.016962,54.346426 102.31457,78.117088 108.21045,92.294108 96.66864,97.458241 86.369001,98.43342 73.638914,98.262735 Z"
     id="path5587"
     sodipodi:nodetypes="cccc"
     inkscape:label="center_sail" /><path
     style="display:inline;opacity:1;fill:#fcf7ff;fill-opacity:1;fill-rule:evenodd;stroke:#88868a;stroke-width:2.11667;stroke-linecap:round;stroke-linejoin:round;stroke-opacity:1"
     d="m 45.03648,11.492068 c 8.842543,14.394875 13.778408,21.389517 19.817442,31.399372 1.297797,18.697233 3.0064,39.004923 3.824055,55.29378 C 48.604065,95.916027 30.338613,95.503121 8.5782877,90.433757 20.720079,67.989506 36.430027,43.489381 45.03648,11.492068 Z"
     id="path5585"
     sodipodi:nodetypes="ccccc"
     inkscape:label="left_sail" /></svg>
