<?xml version="1.0" encoding="UTF-8" standalone="no"?>
<!-- Created with Inkscape (http://www.inkscape.org/) -->

<svg
   width="512"
   height="512"
   viewBox="0 0 135.46667 135.46666"
   version="1.1"
   id="svg5"
   xml:space="preserve"
   inkscape:version="1.2.2 (b0a8486541, 2022-12-01)"
   sodipodi:docname="os_suse_dark.svg"
   inkscape:export-filename="../../icons/256-96/os_unknown.png"
   inkscape:export-xdpi="48"
   inkscape:export-ydpi="48"
   xmlns:inkscape="http://www.inkscape.org/namespaces/inkscape"
   xmlns:sodipodi="http://sodipodi.sourceforge.net/DTD/sodipodi-0.dtd"
   xmlns="http://www.w3.org/2000/svg"
   xmlns:svg="http://www.w3.org/2000/svg"><sodipodi:namedview
     id="namedview7"
     pagecolor="#ffffff"
     bordercolor="#000000"
     borderopacity="0.25"
     inkscape:showpageshadow="2"
     inkscape:pageopacity="0.0"
     inkscape:pagecheckerboard="0"
     inkscape:deskcolor="#d1d1d1"
     inkscape:document-units="px"
     showgrid="false"
     showguides="true"
     inkscape:lockguides="false"
     inkscape:zoom="1.8101934"
     inkscape:cx="207.16019"
     inkscape:cy="243.06796"
     inkscape:window-width="1920"
     inkscape:window-height="1007"
     inkscape:window-x="1920"
     inkscape:window-y="0"
     inkscape:window-maximized="1"
     inkscape:current-layer="svg5"><sodipodi:guide
       position="2.6458333,135.46666"
       orientation="-1,0"
       id="guide20217"
       inkscape:locked="false"
       inkscape:label=""
       inkscape:color="rgb(0,134,229)" /><sodipodi:guide
       position="132.82083,135.46666"
       orientation="-1,0"
       id="guide20221"
       inkscape:locked="false"
       inkscape:label=""
       inkscape:color="rgb(0,134,229)" /><sodipodi:guide
       position="0,132.82083"
       orientation="0,1"
       id="guide20225"
       inkscape:locked="false"
       inkscape:label=""
       inkscape:color="rgb(0,134,229)" /><sodipodi:guide
       position="0,2.6458333"
       orientation="0,1"
       id="guide20227"
       inkscape:locked="false"
       inkscape:label=""
       inkscape:color="rgb(0,134,229)" /></sodipodi:namedview><defs
     id="defs2"><linearGradient
       id="linearGradient30939"
       inkscape:swatch="solid"><stop
         style="stop-color:#8cd2f2;stop-opacity:1;"
         offset="0"
         id="stop30937" /></linearGradient></defs><path
     style="display:inline;opacity:1;fill:#2e7a38;fill-opacity:1;fill-rule:evenodd;stroke:#7dcd85;stroke-width:2.11667;stroke-linecap:round;stroke-linejoin:round;stroke-opacity:1"
     d="M 56.805319,82.921294 C 54.212042,81.448724 51.25028,79.981563 48.440197,78.50942 44.861265,64.120856 33.672386,57.48315 22.582601,59.944661 12.53676,62.174456 9.924817,72.294095 12.143962,79.271647 c 1.788454,5.623351 9.595174,9.95456 15.864665,7.854818 8.345682,-2.795088 7.936061,-7.805438 5.167643,-12.867433 -1.563697,-2.859187 -6.291893,-4.252572 -9.508464,-2.273763 -3.051556,1.877293 -1.316556,6.915326 2.790527,5.477703 4.107083,-1.437623 5.697269,2.769521 2.325439,4.805907 -3.705258,2.237757 -10.302549,0.208198 -12.143961,-4.599202 -1.678238,-4.3814 0.986973,-11.037796 6.459554,-12.505697 4.555901,-1.222022 10.266745,-0.182221 13.435873,3.152264 4.317744,4.543033 6.396788,13.018034 3.358967,18.500161 -5.029943,9.077158 -16.280342,10.400448 -25.47648,5.684409 C 4.0762932,87.197435 0.70334132,74.995195 3.5656739,65.835775 8.0209909,51.57883 24.503501,40.08681 34.416505,35.553385 55.136559,26.07767 72.650572,26.266898 98.986204,34.364826 c -0.01381,-1.426232 -0.01792,-2.956994 0,-4.366656 4.485476,0.839564 10.604106,1.922263 15.812986,3.281452 2.65676,0.693248 5.34744,1.361538 7.85482,2.480469 3.3822,1.509322 6.40851,4.182952 7.7773,7.518921 1.16423,2.837414 1.83482,5.589353 2.38748,8.846375 -1.98584,1.65683 -4.02587,3.152825 -6.44408,3.646403 -3.44031,0.702196 -7.19943,0.104245 -10.46743,-1.179901 -4.06102,-1.595759 -9.42243,-4.519153 -12.84408,-6.30328 0.51222,1.77088 1.29725,3.917545 1.73569,5.33495 3.52263,1.864433 7.16646,3.317948 10.90464,4.564104 3.67303,1.224437 7.55832,1.172786 11.18795,0.310058 2.18983,-0.520502 3.69165,-1.432446 5.65857,-2.60966 0.33417,2.217399 -1.42353,4.90393 -3.46232,5.968627 -5.00255,2.612438 -13.63503,4.366648 -20.90312,4.185793 -4.30225,-0.107055 -8.254791,-0.805446 -12.89327,-0.671796 -1.534849,0.04422 -2.928694,1.839848 -3.152262,3.35897 -0.80142,5.445559 0.932039,11.636599 4.98625,15.917005 C 92.9428,82.706986 89.590166,81.145141 85.627847,79.446055 82.593226,73.058017 75.011597,66.644647 67.71002,66.833043 61.595545,66.99081 54.82234,68.095551 56.805319,82.921294 Z"
     id="path365"
     sodipodi:nodetypes="ccssssszssssssssccssscssccsscssssccsc"
     inkscape:label="body" /><path
     style="display:inline;opacity:1;fill:#2e7a38;fill-opacity:1;fill-rule:evenodd;stroke:#7dcd85;stroke-width:2.11667;stroke-linecap:round;stroke-linejoin:round;stroke-opacity:1"
     d="m 47.761942,91.040954 c 0.732318,-0.0074 1.543847,0.830857 1.543847,1.563211 0,0.732355 -0.811493,1.562148 -1.543847,1.563212 -2.080471,0.003 -4.731816,-0.0091 -6.705017,0 -1.184239,0.0055 -1.184223,3.544416 0,3.552756 2.161995,0.01523 4.067562,0.0042 6.188252,0 1.551545,-0.0031 3.204645,1.690675 3.255615,3.326667 0.02444,0.78446 -0.0046,1.56985 0.01292,2.3545 0.03809,1.7043 -1.547902,3.99343 -3.268535,3.99524 -3.224469,0.003 -6.21453,-0.006 -9.430949,0 -0.701923,0.001 -1.425089,-0.84837 -1.425089,-1.55029 0,-0.70192 0.723165,-1.55087 1.425089,-1.55029 2.711832,0.002 6.009263,0.0152 8.436179,0 1.214373,-0.008 1.21428,-3.66005 0,-3.64319 -1.973201,0.0274 -4.234314,0.0434 -6.356202,0 -1.628767,-0.0333 -3.426215,-1.63103 -3.45586,-3.455861 -0.01332,-0.820255 0.01134,-1.640806 0,-2.461091 -0.02383,-1.724424 1.937726,-3.663046 3.665797,-3.665797 2.4204,-0.0039 5.154517,-0.0039 7.6578,-0.02907 z"
     id="path5513"
     sodipodi:nodetypes="sssssssssssssssssss"
     inkscape:label="s1" /><path
     style="display:inline;opacity:1;fill:#2e7a38;fill-opacity:1;fill-rule:evenodd;stroke:#7dcd85;stroke-width:2.11667;stroke-linecap:round;stroke-linejoin:round;stroke-dasharray:none;stroke-opacity:1"
     d="m 53.367773,92.703895 c -0.0045,-0.78162 0.890106,-1.644334 1.671739,-1.644334 0.781633,0 1.67408,0.862705 1.671739,1.644334 -0.01022,3.411168 0.0045,6.723675 0,9.847735 -0.0012,0.8096 0.908459,1.6852 1.717416,1.71742 1.609,0.0641 3.068217,0.0641 4.512784,0 0.679738,-0.0302 1.448096,-0.76297 1.44336,-1.44336 -0.02199,-3.159274 -0.0049,-6.527617 0,-10.140065 0.0011,-0.779464 0.88314,-1.644334 1.662605,-1.644334 0.779464,0 1.664809,0.864872 1.662604,1.644334 -0.01002,3.543554 -6.4e-4,7.140921 0,10.450655 3.96e-4,2.04983 -2.298581,4.33233 -4.34835,4.34835 -1.820091,0.0142 -3.60621,0.0142 -5.554194,0 -2.075615,-0.0152 -4.382227,-2.3276 -4.403162,-4.40316 -0.03221,-3.19356 -0.01589,-6.801149 -0.03654,-10.377575 z"
     id="path7766"
     sodipodi:nodetypes="sssssssssssssss"
     inkscape:label="u" /><path
     style="display:inline;opacity:1;fill:#2e7a38;fill-opacity:1;fill-rule:evenodd;stroke:#7dcd85;stroke-width:2.11667;stroke-linecap:round;stroke-linejoin:round;stroke-opacity:1"
     d="m 81.956114,91.040954 c 0.732318,-0.0074 1.543847,0.830857 1.543847,1.563211 0,0.732355 -0.811493,1.562148 -1.543847,1.563212 -2.080471,0.003 -4.731816,-0.0091 -6.705017,0 -1.184239,0.0055 -1.184223,3.544416 0,3.552756 2.161995,0.01523 4.067562,0.0042 6.188252,0 1.551545,-0.0031 3.204645,1.690675 3.255615,3.326667 0.02444,0.78446 -0.0046,1.56985 0.01292,2.3545 0.03809,1.7043 -1.547902,3.99343 -3.268535,3.99524 -3.224469,0.003 -6.21453,-0.006 -9.430949,0 -0.701923,0.001 -1.425089,-0.84837 -1.425089,-1.55029 0,-0.70192 0.723165,-1.55087 1.425089,-1.55029 2.711832,0.002 6.009263,0.0152 8.436179,0 1.214373,-0.008 1.21428,-3.66005 0,-3.64319 -1.973201,0.0274 -4.234314,0.0434 -6.356202,0 -1.628767,-0.0333 -3.426215,-1.63103 -3.45586,-3.455861 -0.01332,-0.820255 0.01134,-1.640806 0,-2.461091 -0.02383,-1.724424 1.937726,-3.663046 3.665797,-3.665797 2.4204,-0.0039 5.154517,-0.0039 7.6578,-0.02907 z"
     id="path7710"
     sodipodi:nodetypes="sssssssssssssssssss"
     inkscape:label="s2" /><path
     style="display:inline;opacity:1;fill:#2e7a38;fill-opacity:1;fill-rule:evenodd;stroke:#7dcd85;stroke-width:2.11667;stroke-linecap:round;stroke-linejoin:round;stroke-dasharray:none;stroke-opacity:1"
     d="m 87.514037,105.91085 c 0.0556,-4.21137 0.01849,-8.987181 0,-13.461714 -0.0027,-0.657728 0.737532,-1.396267 1.395265,-1.395262 3.393252,0.0052 6.712318,0.02566 10.12858,0 0.752609,-0.0057 1.653648,0.784744 1.653648,1.537374 0,0.75263 -0.901132,1.524283 -1.653648,1.537373 -2.796804,0.04865 -5.839926,0.02436 -8.190714,0 -1.197106,-0.01241 -1.197151,3.58473 0,3.591512 2.149814,0.01218 4.382396,0.01769 6.562905,0 0.755544,-0.0061 1.653646,0.794725 1.653646,1.550294 0,0.755573 -0.898078,1.551233 -1.653646,1.550293 -2.081148,-0.003 -4.411614,-0.006 -6.537068,0 -1.154102,0.003 -1.154107,3.46232 0,3.46232 2.831908,0 5.901394,0.0447 8.68164,0 0.758425,-0.0122 1.653645,0.80469 1.653645,1.56321 0,0.75852 -0.89514,1.56737 -1.653645,1.56321 -3.58595,-0.0197 -6.869947,-0.0244 -10.516153,0 -0.712553,0.005 -1.533862,-0.7861 -1.524455,-1.49861 z"
     id="path9274"
     sodipodi:nodetypes="ssssssssssssssssss"
     inkscape:label="e" /><path
     style="display:inline;opacity:1;fill:#fcf7ff;fill-opacity:1;fill-rule:evenodd;stroke:#7dcd85;stroke-width:2.11667;stroke-linecap:round;stroke-linejoin:round;stroke-dasharray:none;stroke-opacity:1"
     d="m 115.85856,52.55493 c -5.30233,-2.124181 -5.31477,-7.958671 -3.35897,-11.26546 1.9558,-3.306789 6.68292,-4.348944 9.81852,-2.893881 3.1356,1.455063 5.58678,5.886903 4.23747,9.611815 -1.34931,3.724912 -5.39469,6.671707 -10.69702,4.547526 z"
     id="path10082"
     sodipodi:nodetypes="zzzzz"
     inkscape:label="eye1" /><path
     style="opacity:1;fill:#2e7a38;fill-opacity:1;fill-rule:evenodd;stroke:#7dcd85;stroke-width:2.11667;stroke-linecap:round;stroke-linejoin:round;stroke-dasharray:none;stroke-opacity:1"
     d="m 116.94377,50.12614 c -2.35237,-1.222296 -4.42611,-4.361015 -2.76469,-7.441408 1.66141,-3.080393 4.79227,-3.50892 7.31221,-2.428791 2.51994,1.080129 3.76927,5.059949 2.45463,7.363891 -1.31464,2.303942 -4.64978,3.728604 -7.00215,2.506308 z"
     id="path10865"
     sodipodi:nodetypes="zzzzz"
     inkscape:label="eye2" /><path
     style="opacity:1;fill:#fcf7ff;fill-opacity:1;fill-rule:evenodd;stroke:#7dcd85;stroke-width:2.11667;stroke-linecap:round;stroke-linejoin:round;stroke-dasharray:none;stroke-opacity:1"
     d="m 117.89978,44.02832 c -0.02,-0.975608 1.5019,-1.534132 2.45463,-1.550292 0.95273,-0.01616 2.39411,0.482105 2.42879,1.421101 0.0347,0.938996 -1.36364,1.56308 -2.32544,1.60197 -0.9618,0.03889 -2.53802,-0.497171 -2.55798,-1.472779 z"
     id="path10867"
     sodipodi:nodetypes="zzzzz"
     inkscape:label="eye3" /></svg>
