<?xml version="1.0" encoding="UTF-8" standalone="no"?>
<!-- Created with Inkscape (http://www.inkscape.org/) -->

<svg
   width="512"
   height="512"
   viewBox="0 0 135.46667 135.46666"
   version="1.1"
   id="svg5"
   xml:space="preserve"
   inkscape:version="1.2.2 (b0a8486541, 2022-12-01)"
   sodipodi:docname="os_sabayon_dark.svg"
   inkscape:export-filename="../../icons/256-96/os_ubuntu.png"
   inkscape:export-xdpi="48"
   inkscape:export-ydpi="48"
   xmlns:inkscape="http://www.inkscape.org/namespaces/inkscape"
   xmlns:sodipodi="http://sodipodi.sourceforge.net/DTD/sodipodi-0.dtd"
   xmlns="http://www.w3.org/2000/svg"
   xmlns:svg="http://www.w3.org/2000/svg"><sodipodi:namedview
     id="namedview7"
     pagecolor="#ffffff"
     bordercolor="#000000"
     borderopacity="0.25"
     inkscape:showpageshadow="2"
     inkscape:pageopacity="0.0"
     inkscape:pagecheckerboard="0"
     inkscape:deskcolor="#d1d1d1"
     inkscape:document-units="px"
     showgrid="false"
     showguides="true"
     inkscape:lockguides="false"
     inkscape:zoom="1"
     inkscape:cx="127"
     inkscape:cy="332"
     inkscape:window-width="1920"
     inkscape:window-height="1007"
     inkscape:window-x="1920"
     inkscape:window-y="0"
     inkscape:window-maximized="1"
     inkscape:current-layer="svg5"><sodipodi:guide
       position="2.6458333,135.46666"
       orientation="-1,0"
       id="guide20217"
       inkscape:locked="false"
       inkscape:label=""
       inkscape:color="rgb(0,134,229)" /><sodipodi:guide
       position="132.82083,135.46666"
       orientation="-1,0"
       id="guide20221"
       inkscape:locked="false"
       inkscape:label=""
       inkscape:color="rgb(0,134,229)" /><sodipodi:guide
       position="0,132.82083"
       orientation="0,1"
       id="guide20225"
       inkscape:locked="false"
       inkscape:label=""
       inkscape:color="rgb(0,134,229)" /><sodipodi:guide
       position="0,2.6458333"
       orientation="0,1"
       id="guide20227"
       inkscape:locked="false"
       inkscape:label=""
       inkscape:color="rgb(0,134,229)" /><sodipodi:guide
       position="67.733332,135.46666"
       orientation="-1,0"
       id="guide4570"
       inkscape:locked="false"
       inkscape:label=""
       inkscape:color="rgb(0,134,229)" /><sodipodi:guide
       position="0,67.733332"
       orientation="0,1"
       id="guide4572"
       inkscape:locked="false"
       inkscape:label=""
       inkscape:color="rgb(0,134,229)" /></sodipodi:namedview><defs
     id="defs2"><linearGradient
       id="linearGradient30939"
       inkscape:swatch="solid"><stop
         style="stop-color:#8cd2f2;stop-opacity:1;"
         offset="0"
         id="stop30937" /></linearGradient><inkscape:path-effect
       effect="spiro"
       id="path-effect4857"
       is_visible="true" /><inkscape:path-effect
       effect="spiro"
       id="path-effect4857-3"
       is_visible="true" /></defs><circle
     style="display:inline;opacity:1;fill:#15598e;fill-opacity:1;fill-rule:evenodd;stroke:#5aa9e6;stroke-width:2.11667;stroke-linecap:round;stroke-linejoin:round;stroke-opacity:1"
     id="path8457"
     cx="67.733337"
     cy="67.733337"
     r="65.087502"
     inkscape:label="main_shape" /><circle
     style="display:inline;opacity:1;fill:#4e4e50;fill-opacity:1;fill-rule:evenodd;stroke:#5aa9e6;stroke-width:2.11667;stroke-linecap:round;stroke-linejoin:round;stroke-opacity:1"
     id="circle883"
     cx="67.733337"
     cy="67.733337"
     inkscape:label="inner_circe"
     r="59.398956" /><path
     style="opacity:1;fill:#fcf7ff;fill-opacity:1;fill-rule:evenodd;stroke:#88868a;stroke-width:2.11667;stroke-linecap:round;stroke-linejoin:round"
     d="m 28.343934,84.938255 c -0.35886,2.287228 1.474602,4.520076 2.993419,6.267471 2.110495,2.428118 5.460549,3.415902 8.044812,5.332026 3.184576,2.361231 7.939345,4.125748 11.284011,6.254168 3.3772,2.14912 7.536477,5.3502 11.380308,6.46786 3.167854,0.9211 3.973797,2.00827 7.176323,1.21608 2.913709,-0.72074 4.896548,-3.47406 7.390003,-5.14494 3.729088,-2.49889 7.526585,-4.89455 11.318864,-7.296459 2.792279,-1.768542 5.931033,-3.062561 8.418989,-5.238483 3.317764,-2.901657 8.193837,-5.794461 8.418987,-10.196333 0.0976,-1.90875 -1.42602,-4.012696 -3.1805,-4.77076 -2.409341,-1.041012 -5.413402,0.14238 -7.764184,1.309621 -2.56848,1.275335 -3.780768,4.465051 -6.267471,5.893293 -3.045696,1.749301 -6.852081,4.323543 -10.102786,2.993419 -2.441443,-0.99899 -3.185388,-4.365678 -3.835318,-6.922281 -1.905316,-7.49486 0.815383,-15.49131 0.187089,-23.198994 -0.372757,-4.572851 0.857805,-10.272599 -2.338609,-13.563928 -1.640249,-1.688955 -4.872018,-2.560491 -6.922281,-1.403165 -3.633061,2.050778 -2.575124,7.303368 -3.415744,11.389709 -1.202403,5.845004 -0.738251,9.523642 -0.99024,15.485718 -0.121167,2.866811 0.206379,8.518044 0.342077,11.384204 0.11432,2.414611 1.070132,5.46814 -0.61331,7.202913 -2.266807,2.335926 -6.592873,0.03109 -9.72861,-0.841899 -3.882482,-1.080887 -6.967483,-4.255382 -10.851144,-5.332026 -2.502852,-0.69385 -5.337947,-1.581681 -7.764179,-0.654809 -1.442366,0.551014 -2.941179,1.842224 -3.180506,3.367595 z"
     id="path2495"
     sodipodi:nodetypes="ssssssssssssssssssssssssss"
     inkscape:label="foot" /><path
     style="opacity:1;fill:#fcf7ff;fill-opacity:1;fill-rule:evenodd;stroke:#88868a;stroke-width:2.11667;stroke-linecap:round;stroke-linejoin:round"
     d="m 105.65833,78.109518 c -0.66465,-0.858569 -1.16353,-2.083328 -0.88868,-3.133735 0.50371,-1.925086 2.45586,-3.314014 4.23288,-4.209495 1.85191,-0.93322 4.35126,-1.966483 6.15054,-0.935442 0.93193,0.534023 1.37914,1.935633 1.19269,2.993419 -0.38433,2.180393 -2.57074,3.740408 -4.41997,4.957847 -1.27656,0.84042 -2.82969,1.608481 -4.34981,1.449938 -0.73668,-0.07683 -1.46425,-0.536841 -1.91765,-1.122532 z"
     id="path3375"
     sodipodi:nodetypes="ssssssss"
     inkscape:label="right_nail" /><path
     style="opacity:1;fill:#fcf7ff;fill-opacity:1;fill-rule:evenodd;stroke:#88868a;stroke-width:2.11667;stroke-linecap:round;stroke-linejoin:round"
     d="m 67.832551,40.183593 c -1.051485,0.01036 -2.105147,-0.720011 -2.745052,-1.554427 -0.616695,-0.804152 -0.691928,-1.932427 -0.760677,-2.943489 -0.102415,-1.506168 0.427125,-2.991724 0.529167,-4.497917 0.08198,-1.2101 -0.393242,-2.515514 0.06615,-3.638021 0.443046,-1.082568 1.24462,-2.540304 2.414322,-2.546614 0.982325,-0.0053 2.050521,1.984375 2.050521,2.116666 0,0.132292 0.653632,2.538094 0.79375,3.836459 0.107647,0.99748 -0.04355,2.009293 0.03307,3.009635 0.06548,0.854986 0.453639,1.693844 0.363802,2.546615 -0.0972,0.92264 -0.365834,1.899506 -0.959114,2.61276 -0.442517,0.532004 -1.093983,1.051514 -1.785939,1.058333 z"
     id="path3373"
     sodipodi:nodetypes="ssssssssssss"
     inkscape:label="center_nail" /><path
     style="opacity:1;fill:#fcf7ff;fill-opacity:1;fill-rule:evenodd;stroke:#88868a;stroke-width:2.11667;stroke-linecap:round;stroke-linejoin:round"
     d="m 28.756901,81.623957 c -0.675383,1.032884 -1.990758,1.794536 -3.22461,1.819011 -1.436952,0.0285 -2.847086,-0.925348 -3.836458,-1.967839 -1.455566,-1.533714 -2.890858,-3.693926 -2.596224,-5.78776 0.09048,-0.642977 0.627758,-1.327197 1.256771,-1.488281 2.003149,-0.512988 4.042924,1.122776 5.78776,2.232421 1.115184,0.709211 2.40451,1.504727 2.860808,2.745053 0.283108,0.769554 0.200702,1.761109 -0.248047,2.447395 z"
     id="path3377"
     sodipodi:nodetypes="ssssssss"
     inkscape:label="left_nail" /></svg>
