<?xml version="1.0" encoding="UTF-8" standalone="no"?>
<!-- Created with Inkscape (http://www.inkscape.org/) -->

<svg
   width="512"
   height="512"
   viewBox="0 0 135.46667 135.46666"
   version="1.1"
   id="svg5"
   xml:space="preserve"
   inkscape:version="1.2.2 (b0a8486541, 2022-12-01)"
   sodipodi:docname="os_tails_dark.svg"
   inkscape:export-filename="../../icons/256-96/os_manjaro.png"
   inkscape:export-xdpi="48"
   inkscape:export-ydpi="48"
   xmlns:inkscape="http://www.inkscape.org/namespaces/inkscape"
   xmlns:sodipodi="http://sodipodi.sourceforge.net/DTD/sodipodi-0.dtd"
   xmlns="http://www.w3.org/2000/svg"
   xmlns:svg="http://www.w3.org/2000/svg"><sodipodi:namedview
     id="namedview7"
     pagecolor="#ffffff"
     bordercolor="#000000"
     borderopacity="0.25"
     inkscape:showpageshadow="2"
     inkscape:pageopacity="0.0"
     inkscape:pagecheckerboard="0"
     inkscape:deskcolor="#d1d1d1"
     inkscape:document-units="px"
     showgrid="false"
     showguides="true"
     inkscape:lockguides="false"
     inkscape:zoom="1.4142136"
     inkscape:cx="200.11122"
     inkscape:cy="243.95184"
     inkscape:window-width="1920"
     inkscape:window-height="1007"
     inkscape:window-x="1920"
     inkscape:window-y="0"
     inkscape:window-maximized="1"
     inkscape:current-layer="svg5"><sodipodi:guide
       position="2.6458333,135.46666"
       orientation="-1,0"
       id="guide20217"
       inkscape:locked="false"
       inkscape:label=""
       inkscape:color="rgb(0,134,229)" /><sodipodi:guide
       position="132.82083,135.46666"
       orientation="-1,0"
       id="guide20221"
       inkscape:locked="false"
       inkscape:label=""
       inkscape:color="rgb(0,134,229)" /><sodipodi:guide
       position="0,132.82083"
       orientation="0,1"
       id="guide20225"
       inkscape:locked="false"
       inkscape:label=""
       inkscape:color="rgb(0,134,229)" /><sodipodi:guide
       position="0,2.6458333"
       orientation="0,1"
       id="guide20227"
       inkscape:locked="false"
       inkscape:label=""
       inkscape:color="rgb(0,134,229)" /></sodipodi:namedview><defs
     id="defs2" /><path
     style="display:inline;opacity:1;fill:#775077;fill-opacity:1;fill-rule:evenodd;stroke:#a6809f;stroke-width:2.11667;stroke-linecap:round;stroke-linejoin:round;stroke-opacity:1"
     d="M 9.2604166,2.6458333 H 126.20625 c 3.57079,0 6.61458,3.0401979 6.61458,6.6145833 V 126.20625 c 0,3.57554 -3.04098,6.61458 -6.61458,6.61458 H 9.2604166 c -3.5796937,0 -6.6145833,-3.04591 -6.6145833,-6.61458 V 9.2604166 c 0,-3.5732334 3.0416471,-6.6145833 6.6145833,-6.6145833 z"
     id="path379"
     sodipodi:nodetypes="ccccccccc"
     inkscape:label="main_shape" /><path
     style="opacity:1;fill:#fcf7ff;fill-opacity:1;fill-rule:evenodd;stroke:#a6809f;stroke-width:2.11667;stroke-linecap:round;stroke-linejoin:round;stroke-opacity:1"
     d="m 102.4939,79.871236 c 0.3968,0.330346 0.7635,0.177302 0.7635,-0.304208 0,-4.030292 0.023,-9.839959 0,-15.011521 -0.002,-0.533804 -0.30805,-1.089397 -0.71777,-1.431563 -2.22676,-1.859591 -5.099929,-4.225952 -7.674767,-6.354545 -0.228735,-0.189093 -0.699724,-0.331532 -0.699875,0.338008 -1.29e-4,0.569473 -0.0099,0.840779 0,1.817288 -1.120648,-0.910888 -1.729009,-1.476891 -2.647577,-2.14493 -1.346035,-0.978918 -4.252466,-1.941972 -4.406175,1.684301 -0.139402,3.288731 1.769915,6.768513 3.863485,9.087913 0.928098,1.028211 2.220896,1.899524 3.18302,2.67126 0.0083,0.57753 -0.04209,1.238649 0,1.855824 0.03708,0.543688 0.31815,1.138475 0.74233,1.501532 2.499901,2.139672 5.603519,4.633638 7.593829,6.290641 z"
     id="path3371"
     sodipodi:nodetypes="sssssscssscsss"
     inkscape:label="lock" /><path
     style="opacity:1;fill:#775077;fill-opacity:1;fill-rule:evenodd;stroke:#a6809f;stroke-width:2.11667;stroke-linecap:round;stroke-linejoin:round;stroke-opacity:1"
     d="M 94.163366,67.574474 91.68331,65.549938 c -3.069624,-3.106715 -2.866811,-7.873489 0,-5.965134 l 2.481484,2.007301 z"
     id="path3427"
     sodipodi:nodetypes="ccccc"
     inkscape:label="hole_in_lock" /><path
     style="opacity:1;fill:#fcf7ff;fill-opacity:1;fill-rule:evenodd;stroke:#a6809f;stroke-width:2.11667;stroke-linecap:round;stroke-linejoin:round;stroke-opacity:1"
     d="m 70.953378,39.347084 -2.747865,-2.174904 13.505259,-6.745097 1.719792,0.603581 -0.08256,48.996514 19.375366,15.91423 v 1.92935 L 72.181145,113.14187 H 71.000148 L 50.543684,96.961522 50.171614,95.870116 50.572622,85.853155 32.733919,71.015819 l -0.504362,-1.157552 -0.02066,-38.153744 0.723471,-1.203026 16.35869,-8.185547 1.819011,1.124479 0.02894,37.72793 19.913771,16.400356 z"
     id="path4169"
     inkscape:label="main_figure" /><path
     style="opacity:1;fill:#775077;fill-opacity:1;fill-rule:evenodd;stroke:#a6809f;stroke-width:2.11666664;stroke-linecap:round;stroke-linejoin:round;stroke-opacity:1;stroke-dasharray:none"
     d="m 45.409114,27.037109 2.778125,-1.389062 0.305924,35.445898 -2.778125,1.405598 z"
     id="path4911"
     inkscape:label="vertical_line" /><path
     style="opacity:1;fill:#775077;fill-opacity:1;fill-rule:evenodd;stroke:#a6809f;stroke-width:2.11667;stroke-linecap:round;stroke-linejoin:round;stroke-dasharray:none;stroke-opacity:1"
     d="m 37.043555,32.693745 5.858214,4.700603 -0.08185,-9.062109 -8.255285,4.115951 0.02138,35.615872 5.291667,-2.645834 -3.208073,-2.232422 0.0083,-4.158919 6.424414,4.960938 -0.02479,-4.696354 -6.004684,-4.772663 v -4.162724 l 5.969296,4.764916 0.02712,-4.86877 -6.084115,-4.83938 -0.0029,-4.180261 6.053966,4.842116 -0.08888,-4.488614 -5.901449,-4.68912 z"
     id="path5639"
     inkscape:label="line_with_teeth" /><path
     style="opacity:1;fill:#775077;fill-opacity:1;fill-rule:evenodd;stroke:#a6809f;stroke-width:2.11667;stroke-linecap:round;stroke-linejoin:round;stroke-dasharray:none;stroke-opacity:1"
     d="M 35.842773,70.230338 49.762335,63.251952 69.915618,79.829857 55.992447,86.801935 Z"
     id="path5641"
     inkscape:label="floor" /><path
     style="opacity:1;fill:#fcf7ff;fill-opacity:1;fill-rule:evenodd;stroke:#a6809f;stroke-width:2.11667;stroke-linecap:round;stroke-linejoin:round;stroke-dasharray:none;stroke-opacity:1"
     d="m 54.884505,37.174992 4.970713,3.890971 0.0026,6.046406 -4.970706,-3.894886 z"
     id="path5643"
     inkscape:label="right_eye" /><path
     style="opacity:1;fill:#fcf7ff;fill-opacity:1;fill-rule:evenodd;stroke:#a6809f;stroke-width:2.11667;stroke-linecap:round;stroke-linejoin:round;stroke-dasharray:none;stroke-opacity:1"
     d="m 59.861978,57.943749 -4.985742,-3.886067 v -6.068881 l 4.969206,3.902605 z"
     id="path6371"
     inkscape:label="left_eye" /><path
     style="opacity:1;fill:#fcf7ff;fill-opacity:1;fill-rule:evenodd;stroke:#a6809f;stroke-width:2.11667;stroke-linecap:round;stroke-linejoin:round;stroke-dasharray:none;stroke-opacity:1"
     d="m 64.007711,44.246469 v 16.814596 c 0,0 2.741525,0.9164 3.437752,-2.081364 1.736796,-7.478167 -3.437752,-14.733232 -3.437752,-14.733232 z"
     id="path6373"
     sodipodi:nodetypes="ccsc"
     inkscape:label="smile" /></svg>
