<?xml version="1.0" encoding="UTF-8" standalone="no"?>
<!-- Created with Inkscape (http://www.inkscape.org/) -->

<svg
   width="512"
   height="512"
   viewBox="0 0 135.46667 135.46666"
   version="1.1"
   id="svg5"
   xml:space="preserve"
   inkscape:version="1.2.2 (b0a8486541, 2022-12-01)"
   sodipodi:docname="os_ubuntugnome_dark.svg"
   inkscape:export-filename="../../icons/256-96/os_ubuntu.png"
   inkscape:export-xdpi="48"
   inkscape:export-ydpi="48"
   xmlns:inkscape="http://www.inkscape.org/namespaces/inkscape"
   xmlns:sodipodi="http://sodipodi.sourceforge.net/DTD/sodipodi-0.dtd"
   xmlns="http://www.w3.org/2000/svg"
   xmlns:svg="http://www.w3.org/2000/svg"><sodipodi:namedview
     id="namedview7"
     pagecolor="#ffffff"
     bordercolor="#000000"
     borderopacity="0.25"
     inkscape:showpageshadow="2"
     inkscape:pageopacity="0.0"
     inkscape:pagecheckerboard="0"
     inkscape:deskcolor="#d1d1d1"
     inkscape:document-units="px"
     showgrid="false"
     showguides="true"
     inkscape:lockguides="false"
     inkscape:zoom="1"
     inkscape:cx="135"
     inkscape:cy="274"
     inkscape:window-width="1920"
     inkscape:window-height="1007"
     inkscape:window-x="1920"
     inkscape:window-y="0"
     inkscape:window-maximized="1"
     inkscape:current-layer="svg5"><sodipodi:guide
       position="2.6458333,135.46666"
       orientation="-1,0"
       id="guide20217"
       inkscape:locked="false"
       inkscape:label=""
       inkscape:color="rgb(0,134,229)" /><sodipodi:guide
       position="132.82083,135.46666"
       orientation="-1,0"
       id="guide20221"
       inkscape:locked="false"
       inkscape:label=""
       inkscape:color="rgb(0,134,229)" /><sodipodi:guide
       position="0,132.82083"
       orientation="0,1"
       id="guide20225"
       inkscape:locked="false"
       inkscape:label=""
       inkscape:color="rgb(0,134,229)" /><sodipodi:guide
       position="0,2.6458333"
       orientation="0,1"
       id="guide20227"
       inkscape:locked="false"
       inkscape:label=""
       inkscape:color="rgb(0,134,229)" /><sodipodi:guide
       position="67.733332,135.46666"
       orientation="-1,0"
       id="guide4570"
       inkscape:locked="false"
       inkscape:label=""
       inkscape:color="rgb(0,134,229)" /><sodipodi:guide
       position="0,67.733332"
       orientation="0,1"
       id="guide4572"
       inkscape:locked="false"
       inkscape:label=""
       inkscape:color="rgb(0,134,229)" /></sodipodi:namedview><defs
     id="defs2"><linearGradient
       id="linearGradient30939"
       inkscape:swatch="solid"><stop
         style="stop-color:#8cd2f2;stop-opacity:1;"
         offset="0"
         id="stop30937" /></linearGradient><inkscape:path-effect
       effect="spiro"
       id="path-effect4857"
       is_visible="true" /><inkscape:path-effect
       effect="spiro"
       id="path-effect4857-3"
       is_visible="true" /></defs><circle
     style="display:inline;opacity:1;fill:#15598e;fill-opacity:1;fill-rule:evenodd;stroke:#5aa9e6;stroke-width:2.11667;stroke-linecap:round;stroke-linejoin:round;stroke-opacity:1"
     id="path8457"
     cx="67.733337"
     cy="67.733337"
     r="65.087502"
     inkscape:label="main_shape" /><path
     style="opacity:1;fill:#fcf7ff;fill-opacity:1;fill-rule:evenodd;stroke:#5aa9e6;stroke-width:2.11667;stroke-linecap:round;stroke-linejoin:round;stroke-opacity:1"
     d="m 33.436718,54.107291 c -1.187256,-3.502804 -0.8066,-7.302875 2.414323,-8.301302 3.220923,-0.998427 4.811273,1.783359 5.820833,4.431771 1.00956,2.648412 1.431819,8.772945 -0.79375,9.723437 -2.225569,0.950492 -6.25415,-2.351102 -7.441406,-5.853906 z"
     id="path5477"
     sodipodi:nodetypes="zzzzz"
     inkscape:label="finger_1" /><path
     style="opacity:1;fill:#fcf7ff;fill-opacity:1;fill-rule:evenodd;stroke:#5aa9e6;stroke-width:2.11667;stroke-linecap:round;stroke-linejoin:round;stroke-opacity:1"
     d="m 51.726041,51.395312 c -3.2887,0.91742 -6.951526,-6.547244 -6.978385,-9.921875 -0.02686,-3.374631 1.388975,-6.004142 4.564062,-6.713802 3.175087,-0.70966 5.160411,2.878676 5.423958,6.383073 0.263547,3.504397 0.279065,9.335184 -3.009635,10.252604 z"
     id="path5535"
     sodipodi:nodetypes="zzzzz"
     inkscape:label="finger_2" /><path
     style="opacity:1;fill:#fcf7ff;fill-opacity:1;fill-rule:evenodd;stroke:#5aa9e6;stroke-width:2.11667;stroke-linecap:round;stroke-linejoin:round;stroke-opacity:1"
     d="M 65.451301,46.996614 C 61.763,46.634305 59.900237,39.477984 60.324999,35.619531 c 0.424762,-3.858453 3.100838,-8.336357 7.739063,-7.871354 4.638225,0.465003 4.361303,5.03462 4.001823,8.433593 -0.35948,3.398973 -2.926283,11.177153 -6.614584,10.814844 z"
     id="path5537"
     sodipodi:nodetypes="zzzzz"
     inkscape:label="finger_3" /><path
     style="opacity:1;fill:#fcf7ff;fill-opacity:1;fill-rule:evenodd;stroke:#5aa9e6;stroke-width:2.11667;stroke-linecap:round;stroke-linejoin:round;stroke-opacity:1"
     d="m 81.898063,49.578498 c -5.043505,-2.802023 -4.294462,-11.97916 0.374179,-18.381462 4.668641,-6.402302 14.426667,-8.419469 18.615328,-5.238483 4.18865,3.180985 0.70959,9.922506 -2.759563,14.592917 -3.469152,4.670411 -11.186439,11.829051 -16.229944,9.027028 z"
     id="path5539"
     sodipodi:nodetypes="zzzzz"
     inkscape:label="finger_4" /><path
     style="opacity:1;fill:#fcf7ff;fill-opacity:1;fill-rule:evenodd;stroke:#5aa9e6;stroke-width:2.11667;stroke-linecap:round;stroke-linejoin:round;stroke-opacity:1"
     d="M 90.457371,63.656918 C 90.750108,54.573851 77.17952,52.945445 68.287365,54.068625 c -8.442671,1.066405 -19.249939,4.556088 -26.28596,13.657474 -6.123264,7.920697 -3.616802,21.512323 4.443357,30.121275 7.383694,7.886426 19.462649,16.935566 32.600201,10.897916 8.492129,-3.90275 13.574217,-13.338982 13.096205,-17.305704 -0.766023,-6.356743 -16.975359,-3.304659 -16.65089,1.449938 0.270182,3.959103 -0.170957,4.61705 -2.619243,6.594874 -2.580917,2.084972 -10.815442,-1.605314 -10.897914,-6.735191 -0.07383,-4.592133 7.009508,-8.220852 13.189751,-12.207536 5.707808,-3.681931 15.02252,-8.44578 15.294499,-16.884753 z"
     id="path6267"
     sodipodi:nodetypes="sssssssssss"
     inkscape:label="foot" /></svg>
