<?xml version="1.0" encoding="UTF-8" standalone="no"?>
<!-- Created with Inkscape (http://www.inkscape.org/) -->

<svg
   width="512"
   height="512"
   viewBox="0 0 135.46667 135.46666"
   version="1.1"
   id="svg5"
   xml:space="preserve"
   inkscape:version="1.2.2 (b0a8486541, 2022-12-01)"
   sodipodi:docname="os_ubuntumate.svg"
   inkscape:export-filename="../../icons/256-96/os_ubuntu.png"
   inkscape:export-xdpi="48"
   inkscape:export-ydpi="48"
   xmlns:inkscape="http://www.inkscape.org/namespaces/inkscape"
   xmlns:sodipodi="http://sodipodi.sourceforge.net/DTD/sodipodi-0.dtd"
   xmlns="http://www.w3.org/2000/svg"
   xmlns:svg="http://www.w3.org/2000/svg"><sodipodi:namedview
     id="namedview7"
     pagecolor="#ffffff"
     bordercolor="#000000"
     borderopacity="0.25"
     inkscape:showpageshadow="2"
     inkscape:pageopacity="0.0"
     inkscape:pagecheckerboard="0"
     inkscape:deskcolor="#d1d1d1"
     inkscape:document-units="px"
     showgrid="false"
     showguides="true"
     inkscape:lockguides="false"
     inkscape:zoom="1"
     inkscape:cx="93"
     inkscape:cy="226"
     inkscape:window-width="1920"
     inkscape:window-height="1007"
     inkscape:window-x="1920"
     inkscape:window-y="0"
     inkscape:window-maximized="1"
     inkscape:current-layer="svg5"><sodipodi:guide
       position="2.6458333,135.46666"
       orientation="-1,0"
       id="guide20217"
       inkscape:locked="false"
       inkscape:label=""
       inkscape:color="rgb(0,134,229)" /><sodipodi:guide
       position="132.82083,135.46666"
       orientation="-1,0"
       id="guide20221"
       inkscape:locked="false"
       inkscape:label=""
       inkscape:color="rgb(0,134,229)" /><sodipodi:guide
       position="0,132.82083"
       orientation="0,1"
       id="guide20225"
       inkscape:locked="false"
       inkscape:label=""
       inkscape:color="rgb(0,134,229)" /><sodipodi:guide
       position="0,2.6458333"
       orientation="0,1"
       id="guide20227"
       inkscape:locked="false"
       inkscape:label=""
       inkscape:color="rgb(0,134,229)" /><sodipodi:guide
       position="67.733332,135.46666"
       orientation="-1,0"
       id="guide4570"
       inkscape:locked="false"
       inkscape:label=""
       inkscape:color="rgb(0,134,229)" /><sodipodi:guide
       position="0,67.733332"
       orientation="0,1"
       id="guide4572"
       inkscape:locked="false"
       inkscape:label=""
       inkscape:color="rgb(0,134,229)" /></sodipodi:namedview><defs
     id="defs2"><linearGradient
       id="linearGradient30939"
       inkscape:swatch="solid"><stop
         style="stop-color:#8cd2f2;stop-opacity:1;"
         offset="0"
         id="stop30937" /></linearGradient></defs><circle
     style="display:inline;opacity:1;fill:#c1e7c5;fill-opacity:1;fill-rule:evenodd;stroke:#7dcd85;stroke-width:2.11667;stroke-linecap:round;stroke-linejoin:round;stroke-opacity:1"
     id="path8457"
     cx="67.733337"
     cy="67.733337"
     r="65.087502"
     inkscape:label="main_shape" /><path
     style="opacity:1;fill:#fcf7ff;fill-opacity:1;fill-rule:evenodd;stroke:#7dcd85;stroke-width:2.11667;stroke-linecap:round;stroke-linejoin:round;stroke-opacity:1"
     d="M 79.328517,48.292263 78.363174,18.188037 105.5026,33.44292 Z"
     id="path2336"
     inkscape:transform-center-x="-24.199446"
     inkscape:transform-center-y="-34.492928" /><path
     style="opacity:1;fill:#fcf7ff;fill-opacity:1;fill-rule:evenodd;stroke:#7dcd85;stroke-width:2.11667;stroke-linecap:round;stroke-linejoin:round;stroke-opacity:1"
     d="m 78.772143,87.495113 26.553697,14.216097 -26.780831,15.876 z"
     id="path3945"
     inkscape:transform-center-x="-24.201983"
     inkscape:transform-center-y="34.808086" /><path
     style="opacity:1;fill:#fcf7ff;fill-opacity:1;fill-rule:evenodd;stroke:#7dcd85;stroke-width:2.11667;stroke-linecap:round;stroke-linejoin:round;stroke-opacity:1"
     d="M 45.099667,67.689099 19.511317,83.890663 19.152713,52.764176 Z"
     id="path3947"
     inkscape:transform-center-x="35.607254"
     inkscape:transform-center-y="0.59434274" /><path
     style="opacity:1;fill:#fcf7ff;fill-opacity:1;fill-rule:evenodd;stroke:#7dcd85;stroke-width:2.11667;stroke-linecap:round;stroke-linejoin:round;stroke-opacity:1"
     d="m 83.087434,51.130729 4.510317,-2.554883 c 0,0 7.772781,7.593155 7.72587,19.239424 -0.04691,11.646269 -7.906442,19.239424 -7.906442,19.239424 l -4.642136,-2.467231 c 0,0 7.51946,-6.600606 7.598401,-16.728367 0.07894,-10.127761 -7.28601,-16.728367 -7.28601,-16.728367 z"
     id="path3949"
     sodipodi:nodetypes="cczcczc"
     inkscape:transform-center-x="-21.319768"
     inkscape:transform-center-y="0.078532471" /><path
     style="opacity:1;fill:#fcf7ff;fill-opacity:1;fill-rule:evenodd;stroke:#7dcd85;stroke-width:2.11667;stroke-linecap:round;stroke-linejoin:round;stroke-opacity:1"
     d="m 95.125817,44.302013 4.384386,-2.485446 c 0,0 9.250437,9.835686 9.250437,25.881422 0,16.045736 -9.188547,25.881423 -9.188547,25.881423 l -4.471961,-2.390148 c 0,0 8.702188,-9.221358 8.709018,-23.443626 0.007,-14.222268 -8.683333,-23.443625 -8.683333,-23.443625 z"
     id="path4000"
     sodipodi:nodetypes="cczcczc"
     inkscape:transform-center-x="-34.200717"
     inkscape:transform-center-y="-0.038748034" /><path
     style="opacity:1;fill:#fcf7ff;fill-opacity:1;fill-rule:evenodd;stroke:#7dcd85;stroke-width:2.11667;stroke-linecap:round;stroke-linejoin:round;stroke-opacity:1"
     d="m 74.432014,89.339955 -0.04256,5.183491 c 0,0 -10.462256,2.934848 -20.524765,-2.928913 C 43.802174,85.730774 41.156075,75.127642 41.156075,75.127642 l 4.457753,-2.786592 c 0,0 1.956562,9.812346 10.68799,14.944591 8.731429,5.132245 18.130196,2.054314 18.130196,2.054314 z"
     id="path4063"
     sodipodi:nodetypes="cczcczc"
     inkscape:transform-center-x="9.9356264"
     inkscape:transform-center-y="16.062738" /><path
     style="opacity:1;fill:#fcf7ff;fill-opacity:1;fill-rule:evenodd;stroke:#7dcd85;stroke-width:2.11667;stroke-linecap:round;stroke-linejoin:round;stroke-opacity:1"
     d="m 74.326664,103.17986 -0.03973,5.03971 c 0,0 -13.143172,3.09327 -27.039187,-4.9296 -13.896019,-8.022864 -17.8197,-20.898223 -17.8197,-20.898223 l 4.305909,-2.677758 c 0,0 3.634836,12.146995 15.948267,19.264044 12.313345,7.117197 24.644441,4.201827 24.644441,4.201827 z"
     id="path4065"
     sodipodi:nodetypes="cczcczc"
     inkscape:transform-center-x="15.852316"
     inkscape:transform-center-y="26.523221" /><path
     style="opacity:1;fill:#fcf7ff;fill-opacity:1;fill-rule:evenodd;stroke:#7dcd85;stroke-width:2.11667;stroke-linecap:round;stroke-linejoin:round;stroke-opacity:1"
     d="m 45.669564,62.739529 -4.467755,-2.628604 c 0,0 2.689475,-10.528003 12.798896,-16.310511 C 64.110126,38.0179 74.615758,41.027877 74.615758,41.027877 L 74.80014,46.2817 c 0,0 -9.476021,-3.21174 -18.28639,1.783776 -8.810369,4.995516 -10.844186,14.674053 -10.844186,14.674053 z"
     id="path4067"
     sodipodi:nodetypes="cczcczc"
     inkscape:transform-center-x="9.7286964"
     inkscape:transform-center-y="-16.244573" /><path
     style="opacity:1;fill:#fcf7ff;fill-opacity:1;fill-rule:evenodd;stroke:#7dcd85;stroke-width:2.11667;stroke-linecap:round;stroke-linejoin:round;stroke-opacity:1"
     d="m 33.73653,55.728341 -4.344652,-2.554263 c 0,0 3.892735,-12.928955 17.788752,-20.951822 13.896014,-8.022874 27.008242,-4.983202 27.008242,-4.983202 l 0.166052,5.067906 c 0,0 -12.337024,-2.925637 -24.657285,4.179582 C 37.377293,43.591613 33.73653,55.728341 33.73653,55.728341 Z"
     id="path4069"
     sodipodi:nodetypes="cczcczc"
     inkscape:transform-center-x="15.85627"
     inkscape:transform-center-y="-26.535488" /></svg>
