<?xml version="1.0" encoding="UTF-8" standalone="no"?>
<!-- Created with Inkscape (http://www.inkscape.org/) -->

<svg
   width="512"
   height="512"
   viewBox="0 0 135.46667 135.46666"
   version="1.1"
   id="svg5"
   xml:space="preserve"
   inkscape:version="1.2.2 (b0a8486541, 2022-12-01)"
   sodipodi:docname="os_ubuntustudio_dark.svg"
   inkscape:export-filename="../../icons/256-96/os_ubuntu.png"
   inkscape:export-xdpi="48"
   inkscape:export-ydpi="48"
   xmlns:inkscape="http://www.inkscape.org/namespaces/inkscape"
   xmlns:sodipodi="http://sodipodi.sourceforge.net/DTD/sodipodi-0.dtd"
   xmlns="http://www.w3.org/2000/svg"
   xmlns:svg="http://www.w3.org/2000/svg"><sodipodi:namedview
     id="namedview7"
     pagecolor="#ffffff"
     bordercolor="#000000"
     borderopacity="0.25"
     inkscape:showpageshadow="2"
     inkscape:pageopacity="0.0"
     inkscape:pagecheckerboard="0"
     inkscape:deskcolor="#d1d1d1"
     inkscape:document-units="px"
     showgrid="false"
     showguides="true"
     inkscape:lockguides="false"
     inkscape:zoom="1"
     inkscape:cx="155"
     inkscape:cy="242"
     inkscape:window-width="1920"
     inkscape:window-height="1007"
     inkscape:window-x="1920"
     inkscape:window-y="0"
     inkscape:window-maximized="1"
     inkscape:current-layer="svg5"><sodipodi:guide
       position="2.6458333,135.46666"
       orientation="-1,0"
       id="guide20217"
       inkscape:locked="false"
       inkscape:label=""
       inkscape:color="rgb(0,134,229)" /><sodipodi:guide
       position="132.82083,135.46666"
       orientation="-1,0"
       id="guide20221"
       inkscape:locked="false"
       inkscape:label=""
       inkscape:color="rgb(0,134,229)" /><sodipodi:guide
       position="0,132.82083"
       orientation="0,1"
       id="guide20225"
       inkscape:locked="false"
       inkscape:label=""
       inkscape:color="rgb(0,134,229)" /><sodipodi:guide
       position="0,2.6458333"
       orientation="0,1"
       id="guide20227"
       inkscape:locked="false"
       inkscape:label=""
       inkscape:color="rgb(0,134,229)" /><sodipodi:guide
       position="67.733332,135.46666"
       orientation="-1,0"
       id="guide4570"
       inkscape:locked="false"
       inkscape:label=""
       inkscape:color="rgb(0,134,229)" /><sodipodi:guide
       position="0,67.733332"
       orientation="0,1"
       id="guide4572"
       inkscape:locked="false"
       inkscape:label=""
       inkscape:color="rgb(0,134,229)" /></sodipodi:namedview><defs
     id="defs2"><linearGradient
       id="linearGradient30939"
       inkscape:swatch="solid"><stop
         style="stop-color:#8cd2f2;stop-opacity:1;"
         offset="0"
         id="stop30937" /></linearGradient></defs><circle
     style="display:inline;opacity:1;fill:#15598e;fill-opacity:1;fill-rule:evenodd;stroke:#5aa9e6;stroke-width:2.11667;stroke-linecap:round;stroke-linejoin:round;stroke-opacity:1"
     id="path8457"
     cx="67.733337"
     cy="67.733337"
     r="65.087502"
     inkscape:label="main_shape" /><path
     style="opacity:1;fill:#fcf7ff;fill-opacity:1;fill-rule:evenodd;stroke:#5aa9e6;stroke-width:2.11667;stroke-linecap:round;stroke-linejoin:round;stroke-opacity:1"
     d="m 75.822066,17.576103 c 0.572418,-2.236408 3.044732,-4.046264 5.992682,-3.471372 7.991584,1.827032 19.718502,8.504824 25.615072,15.091333 1.48736,1.760266 1.25871,4.604496 -0.23752,6.266738 -1.09963,1.259044 -4.0355,2.616541 -6.30328,1.041411 -7.135253,-6.297875 -12.911325,-9.830073 -21.193634,-12.533478 -2.429171,-0.80278 -4.762493,-3.076192 -3.87332,-6.394632 z"
     id="path864"
     sodipodi:nodetypes="ccccccc"
     inkscape:transform-center-x="-24.300294"
     inkscape:transform-center-y="-42.126951"
     inkscape:label="right_top" /><path
     style="opacity:1;fill:#fcf7ff;fill-opacity:1;fill-rule:evenodd;stroke:#5aa9e6;stroke-width:2.11667;stroke-linecap:round;stroke-linejoin:round;stroke-opacity:1"
     d="m 107.12477,99.817034 c 1.65058,1.613936 1.9818,4.659946 0.01,6.925496 -5.57804,6.0074 -17.22464,12.82432 -25.877009,14.63764 -2.268115,0.40796 -4.616965,-1.21217 -5.308394,-3.33907 -0.540549,-1.58183 -0.248241,-4.80311 2.249751,-5.9795 9.021747,-3.03037 14.968756,-6.2665 21.451128,-12.087489 1.909814,-1.702333 5.045304,-2.586343 7.474574,-0.157077 z"
     id="path4574"
     sodipodi:nodetypes="ccccccc"
     inkscape:transform-center-x="-24.373394"
     inkscape:transform-center-y="42.149911"
     inkscape:label="right_bottom" /><path
     style="opacity:1;fill:#fcf7ff;fill-opacity:1;fill-rule:evenodd;stroke:#5aa9e6;stroke-width:2.11667;stroke-linecap:round;stroke-linejoin:round;stroke-opacity:1"
     d="m 20.250682,85.805505 c -2.222999,0.622476 -5.026531,-0.613684 -6.002655,-3.454088 -2.413541,-7.834425 -2.493867,-21.329136 0.261936,-29.728967 0.780754,-2.168226 3.358253,-3.392324 5.545917,-2.927669 1.640179,0.322785 4.283736,2.186572 4.053523,4.938091 -1.886496,9.328247 -2.05743,16.096573 -0.257491,24.620966 0.519356,2.505114 -0.282814,5.662533 -3.601255,6.55171 z"
     id="path4576"
     sodipodi:nodetypes="ccccccc"
     inkscape:transform-center-x="49.450815"
     inkscape:transform-center-y="0.04708846"
     inkscape:label="left" /><path
     style="opacity:1;fill:#fcf7ff;fill-opacity:1;fill-rule:evenodd;stroke:#5aa9e6;stroke-width:2.11667;stroke-linecap:round;stroke-linejoin:round;stroke-opacity:1"
     d="m 48.52617,48.105218 c -2.846865,2.442785 -5.663655,1.883382 -7.384203,0.122733 -1.683483,-1.72272 -2.092977,-4.852504 0.286491,-7.220445 9.731319,-9.205509 23.386416,-13.841129 39.06592,-8.589117 10.275399,3.441851 24.659682,15.535006 24.520832,35.307282 -0.13229,18.837852 -12.826657,31.350826 -24.576985,35.308219 -18.527389,6.23984 -31.70478,-2.14806 -39.009767,-8.574731 -2.498599,-3.078404 -1.922484,-5.799907 -0.105701,-7.534142 1.740045,-1.660985 4.36921,-1.986185 7.203413,0.43643 11.708805,9.495606 19.35025,8.904842 29.51051,5.690478 9.059037,-2.865975 17.056528,-13.225586 17.056528,-25.320939 0,-11.955818 -7.867947,-21.873493 -17.082086,-25.413795 -11.117916,-4.271782 -22.19823,-1.124612 -29.484952,5.788027 z"
     id="path4632"
     sodipodi:nodetypes="cccssscccscsc"
     inkscape:label="middle_circle" /><path
     style="opacity:1;fill:#fcf7ff;fill-opacity:1;fill-rule:evenodd;stroke:#5aa9e6;stroke-width:2.11667;stroke-linecap:round;stroke-linejoin:round;stroke-opacity:1"
     d="m 30.351634,67.732298 c 4.3e-5,-3.289959 0.266114,-6.238159 1.218714,-9.793311 2.187131,-6.018394 10.633382,-4.131881 9.67687,2.592916 -0.51033,3.587897 -0.796975,4.786297 -0.796975,7.201429 0,2.415132 0.212772,3.373501 0.796975,7.20143 1.006121,6.592506 -7.291042,8.479245 -9.67687,2.592916 -0.923963,-2.279606 -1.218757,-6.505421 -1.218714,-9.79538 z"
     id="path6279"
     sodipodi:nodetypes="ccccccc"
     inkscape:label="left_middle_circle" /><circle
     style="opacity:1;fill:#fcf7ff;fill-opacity:1;fill-rule:evenodd;stroke:#5aa9e6;stroke-width:2.11667;stroke-linecap:round;stroke-linejoin:round;stroke-opacity:1"
     id="path9345"
     cx="67.667191"
     cy="67.73333"
     r="19.446875"
     inkscape:label="inner_white_circle" /><circle
     style="opacity:1;fill:#15598e;fill-opacity:1;fill-rule:evenodd;stroke:#5aa9e6;stroke-width:2.11667;stroke-linecap:round;stroke-linejoin:round;stroke-opacity:1"
     id="circle9369"
     cx="67.667191"
     cy="67.73333"
     r="9.5249996"
     inkscape:label="inner_blue_circle" /></svg>
